/* XPM */
static char *CE1683236889[] = {
/* columns rows colors chars-per-pixel */
"64 64 256 2 ",
"   c #2E1839",
".  c #3B283B",
"X  c #42293D",
"o  c #2A1C44",
"O  c #2C1C4A",
"+  c #1A285A",
"@  c #1F2243",
"#  c #3B2745",
"$  c #2C2C5C",
"%  c #252957",
"&  c #352C58",
"*  c #2A325B",
"=  c #393659",
"-  c #262749",
";  c #1A2B64",
":  c #1C3165",
">  c #272B62",
",  c #2C3665",
"<  c #3D3B64",
"1  c #383866",
"2  c #3B3B78",
"3  c #322F61",
"4  c #1A1C59",
"5  c #432A49",
"6  c #473459",
"7  c #58375A",
"8  c #4A314F",
"9  c #6C3E58",
"0  c #433663",
"q  c #443A64",
"w  c #4A3C65",
"e  c #453B6A",
"r  c #4B3966",
"t  c #563C68",
"y  c #4A3D76",
"u  c #753F63",
"i  c #3D426C",
"p  c #384168",
"a  c #3A4576",
"s  c #3E527C",
"d  c #4E455B",
"f  c #734A59",
"g  c #44436B",
"h  c #4B436C",
"j  c #494666",
"k  c #54446C",
"l  c #5B446C",
"z  c #574669",
"x  c #5C526C",
"c  c #4D4B73",
"v  c #464774",
"b  c #534571",
"n  c #544B73",
"m  c #5B4A74",
"M  c #574778",
"N  c #475279",
"B  c #585578",
"V  c #63456C",
"C  c #68486A",
"Z  c #66536C",
"A  c #76576D",
"S  c #634B73",
"D  c #6B4D74",
"F  c #684B7A",
"G  c #754D75",
"H  c #645273",
"J  c #6B5373",
"K  c #655479",
"L  c #6C537B",
"P  c #695B79",
"I  c #73567C",
"U  c #7B5C7C",
"Y  c #765678",
"T  c #784669",
"R  c #69637A",
"E  c #7D617E",
"W  c #72627B",
"Q  c #766169",
"!  c #8C5C7B",
"~  c #875877",
"^  c #965779",
"/  c #89506C",
"(  c #A15776",
")  c #8D627C",
"_  c #866A7E",
"`  c #96657C",
"'  c #8D7274",
"]  c #A66776",
"[  c #88665F",
"{  c #3E3F82",
"}  c #483E87",
"|  c #3C4582",
" . c #3C4B85",
".. c #33448D",
"X. c #364B8C",
"o. c #3B4C8C",
"O. c #384686",
"+. c #3E518A",
"@. c #384992",
"#. c #3E5394",
"$. c #2E418A",
"%. c #424D8A",
"&. c #454A86",
"*. c #544B84",
"=. c #435285",
"-. c #43528C",
";. c #4B548B",
":. c #4C5B8C",
">. c #485788",
",. c #585988",
"<. c #424C93",
"1. c #435393",
"2. c #4A5493",
"3. c #485A98",
"4. c #535B94",
"5. c #575D98",
"6. c #635C84",
"7. c #695988",
"8. c #735B83",
"9. c #7B5C82",
"0. c #765686",
"q. c #665C94",
"w. c #664984",
"e. c #5B618C",
"r. c #4C6196",
"t. c #546294",
"y. c #5B6294",
"u. c #596699",
"i. c #4F608E",
"p. c #64638B",
"a. c #6B648C",
"s. c #696587",
"d. c #736383",
"f. c #7B6384",
"g. c #79688A",
"h. c #686695",
"j. c #736A95",
"k. c #7A7699",
"l. c #78738A",
"z. c #4A5DA4",
"x. c #5866A4",
"c. c #855C85",
"v. c #975C84",
"b. c #845C90",
"n. c #836484",
"m. c #83648A",
"M. c #846B8B",
"N. c #8B6B8B",
"B. c #896685",
"V. c #936484",
"C. c #986887",
"Z. c #8B728D",
"A. c #8A7789",
"S. c #987388",
"D. c #896A94",
"F. c #986C95",
"G. c #897495",
"H. c #997699",
"J. c #A56886",
"K. c #B46B8B",
"L. c #A7768C",
"P. c #AC6C91",
"I. c #A87799",
"U. c #B87898",
"Y. c #B6758B",
"T. c #9279A5",
"R. c #AA7CA2",
"E. c #B87EA2",
"W. c #AA5F85",
"Q. c #C47C9B",
"!. c #C87A9A",
"~. c #CC7997",
"^. c #CD7EA2",
"/. c #98819D",
"(. c #95828D",
"). c #B6848D",
"_. c #AB8895",
"`. c #BD829C",
"'. c #B08F93",
"]. c #AA86A6",
"[. c #BB82A4",
"{. c #B687A8",
"}. c #B594B0",
"|. c #BCA4B2",
" X c #9184A9",
".X c #C9859C",
"XX c #D4879D",
"oX c #CE9498",
"OX c #CDA799",
"+X c #C384A4",
"@X c #CC82A4",
"#X c #CC8BAC",
"$X c #C689A9",
"%X c #D38CAC",
"&X c #D988A6",
"*X c #C995AA",
"=X c #D893AA",
"-X c #C78DB2",
";X c #D38EB1",
":X c #C996B7",
">X c #D897B4",
",X c #E88BAA",
"<X c #F28CAB",
"1X c #E695AC",
"2X c #F497AD",
"3X c #E798B4",
"4X c #F39BB8",
"5X c #EA8CB0",
"6X c #DAA6B7",
"7X c #D0AEB2",
"8X c #F5A9AC",
"9X c #EBA3BB",
"0X c #E6A6B9",
"qX c #F3A3BB",
"wX c #FCA4BB",
"eX c #F5ACBB",
"rX c #FDACBC",
"tX c #F9A7B4",
"yX c #E8B6B7",
"uX c #FCB5B4",
"iX c #FBB3BB",
"pX c #FCBBBB",
"aX c #F6B7B9",
"sX c #E6B3AC",
"dX c #EDC7B8",
"fX c #FCC3BC",
"gX c #FCCCBC",
"hX c #F4CBB8",
"jX c #F4D3BC",
"kX c #FCD4BC",
"lX c #FBDBBD",
"zX c #F7D5B7",
"xX c #EFD0B4",
"cX c #FDE2BE",
"vX c #BC9FC0",
"bX c #C59CC3",
"nX c #D7B7D6",
"mX c #D0ABC6",
"MX c #F7ACC3",
"NX c #E9BAC9",
"BX c #F9B7C5",
"VX c #F9BBD7",
"CX c #E7ACCA",
"ZX c #EAC6C6",
"AX c #FCCBC3",
"SX c #FDCBC9",
"DX c #F9C6C4",
"FX c #FDD4C3",
"GX c #FDDBC4",
"HX c #FAD7C8",
"JX c #FCDAD6",
"KX c #F2CAD0",
"LX c #FDE3C3",
"PX c #FCE3C9",
"IX c #FDE5D3",
"UX c #E5D1DB",
/* pixels */
"5.2.2.z.z.2.<.&.5.j.T.F.v.^ ( ^ ^ ^ G c.F M *.v *.5.q.q.q.w.0.0.b.~ / G ~ A ~ / / ^ v.W.( ( ( [ oXOXzXzXkXdXsXdXdXsXOXQ f (.OX[ ",
"3.2.<.2.<.<.} } y } 0.D.D.v.^ / ^ c.c.w.w.w.q.*.%.2.5.q.q.q.0.0.0.0.c.c.~ c.c.v.v.W.( W.( ( .XXXuXxXzXzXFXGXlXGXIXGXJXHXxXJXJXZX",
"2.4.2.<.O.o.o. .} } *.w.b.D.C.C.b.c.g.0.0.q.5.<.{ &.2.*.*.*.M y w.w.w.0.0.0.0.b.c.F.v.] ( ] SXJXGXkXzXzXLXPXPXGXjXdXjXHXHXZXJXUX",
"%.%.%.| O.1.1.3.} { y 2 M 7.7.0.0.7.0.q.q.5.2.&.$.$.{ &.{ 2 y 2 y } w.} *.q.0.0.b.c.V.J.] ] yXSXhXkXLXcXGXGXkXlXPXHXHXHXdXHXJXIX",
"a o. .O.O.+.+.+.O.O.a $.{ &.v y M M *.,.5.4.z.<.o.o.o.O.|  .| | } } <.%.2.*.*.F P z f 9 f [ OXPXFXGXPXLXlXjXGXLXlXFXGXFXFXHXFXHX",
"-.-.+.+.+.+.+.X.X.X.@.X.@.1.#.o.&.>.%.%.<.<.<.<.@.@.....O. .+.+.z.2.z.3.2.&.v e 6 z ' '.OXOXsXzXjXjXjXjXjXlXlXlXlXlXlXLXGXkXjXkX",
"r.3.3.#.+.X.X.X.X.X.X.X.@.@.1.3.1.-.<.| ..$.@.@...$.$.$...X.+.3.z.3.#.r.>.N v j l.|.ZXIXIXcXzXcXxXxXjXxXxXjXzXxXlXlXcXlXlXxXxXkX",
"r.3.r.3.#.O. .+.X.+.#.#.z.z.z.z.o.#.1.#...$.$...@.@.....X.X.#.#.1.o.$.s  .s c j (.IXIXLXcXcXlXzXGXHXHXjXxXxXkXLXzXLXcXzXlXlXlXLX",
"1.3.3. .x.x.+.+.O.o.#.#.1.3.z.3.3.#.X.@.@.@.@.........@.X.X.X. .o.+.+.s a s B = Q ZXIXxXkXzXlXkXFXHXFXkXhXzXkXlXlXcXcXcXcXcXcXLX",
"x.2.3.1.5.-.1.5. .-.-.<.<.1.1.X.o.X.X.X.@.X.@.@.@.@...@.X.X.+.o.| a a a 1 2 c 6 |.IXJXHXgXhXFXHXFXFXFXgXgXgXkXkXlXlXcXcXcXLXcXLX",
"4.2.5.2.o.%.2.&.2.2.2.1.2.&.o. .O.X.#.o.X...@.<.<.<.<.<.1.1.1.1. .=.$.| | 2 e = _ ZXJXSXaXsXaXaXDXgXgXgXgXzXkXzXzXlXlXGXLXLXLXLX",
"*.*.*.,.5.;.4.x.4.4.4.4.4.4.;.;.>.1.1.+.o.o.o.<.<.<.2.z.x.z.3.2. .o.2 | | 2 e 6 7 }.NX0XsX6XBXaXsXaXfXgXgXkXFXkXlXkXlXlXLXPXPXPX",
"j.T.6.h *.,.4.4.3.4.4.t.4.y.y.y.u.u.i.>.+.+.+.+.@.<.2.3.5.t.4.2.>.=.a | O.2 v z . f ' '.OXsX6XsXsXsXkXFXFXGXGXGXGXkXgXkXFXHXHXFX",
"nXnXH.j.a.,.,.:.>.1.-.r.4.t.y.h.u.t.:.=.>.>.3.+.%.%.-.-.-.-.1.;.=.>. .=. .1 p = f ' OXsXgXgXDXaXsXxXFXFXFXFXFXGXFXAXgXfXdXAXDXDX",
"KX}.n.}.G.v N u.:.>.>.:.:.:.t.t.u.y.:.>.>.i.i.r.3.+.+.s  .=.&.=.a s s s 2 p p.s.7XPXIXcXkXGXFXgXdXjXFXkXFXAXFXFXFXAXDXfXDXfXBXDX",
"KX7X|.7XM.g.T.B e.:.>.:.:.:.:.t.h.y.e.:.i.r.r.r.:.>.+.=. .=. .N =.N s s p l.nXIXIXPXcXcXlXlXkXFXFXHXFXjXjXgXgXAXfXfXfXfXpXBXiXpX",
"ZXhXHXJXNX)._ Z.d.g.a.:.>.t.r.:.:.t.u.u.i.i.t.t.3.:.>.-.>.=.&.=.=.N N j R 7XUXHXPXPXPXjXGXHXHXAXjXjXAXFXFXAXDXfXaXuXuXuXuXpXuXuX",
"FXjXgXAXdX7X*X`.].N.d.6.p.t.t.u.i.e.h.u.u.i.t.r.t.4.r.:.;.>.>.>.>.>.e.}.mXIXIXPXxXcXLXHXFXFXDXpXAXAXhXfXpXaXaXaXsXuXuXpXuXuXuXuX",
"kXFXgXhXDXSXDXZXUXmX].G.a.p.e.>.e.e.e.e.e.u.u.u.u.t.t.5.4.4.:.:.h.e.B |.IXZXGXjXIXPXHXxXhXfXhXfXuXuXuXuXuXuXuXuXuXaXpXaXaXaXpXfX",
"GXPXJXFXAXDXDXZXKX7X].A.d.s.s.p.k.j.e.e.e.e.e.e.5.y.u.u.t.5.,.,.:.B p (.mXZXIXIXPXPXxXFXgXpX8X8XuXtXtXtXtXuXtXuXBXpXpXpXaXDXfXfX",
"HXHXGXFXhXDXZXZX7X_.' A.(.R R l.k.j.s.6.s.e.e.,.y.5.e.y.y.5.y.4.t.i.N j Z Q Q Q Q ' |.xXZXyXyXaXtXtXtX8X8X1XoXoX9XyXBXDXDXDXDXDX",
"xXdXDXAXSXSXAXDXdX*X'.:X|._._ W P W W s.s.s.s.p.e.y.p.y.h.p.5.y.r.:.>.< = 8 5 8 = . . x }.NXNX>X8X8X8X3X1XXX.XY.Y.oX0XNX0X6X6XyX",
"SXSXSXDXDXBXiXeXeXBXBXNXKXNX*XS.B.A.G.j.d.g.j.h.h.h.q.h.5.q.5.y.r.:.>.v h w K B x x R x C ) _.6XoXoX=XoXoX.X] Y.] Y.`..X.X+X*X=X",
"=XNXBXBXrXrXBXiXqXrXMX9X6X6X6X:X|.mX|.H.l.G.k.k.j.h.h.h.p.e.q.y.:.:.>.N ,.P  XG.G././.E U n.L.).).).).Y.L.L.Y.L.I.L.J.L.L.).`.`.",
"` ` =XSXMXMXVX9X9X3X=X6X>X=X6X7X}.mXmX XH P g.j.a.h.h.a.h.,.,.p.,.,.B j.G./.H.H.H.H.H.S.V.` L.).(.L.L.S.` S.V.S.S.S.S.V.S.J.S.L.",
") A S.:X|.`.*X*X$XY.` ` ) ' C.H.]./.A.x 6 k P a.j.j.j.h.h.h.6.,.6.P W g.A./.H._.H.I.I.F.S.` ` S.L.S.S.S.S.Z.A.A.n.n.A.A.Z.A.B.B.",
"P Z P n._ n.A.n.n.Q Z Z x x Z P W P z j k j h B a.j.h.h.j.j.q.6.6.s.d.d.d.M.G.Z.G.H.T.H.Z.N.C.C.S.S.H.H.H.A.g.g.d.R d.R R x x d ",
"P R R R f.l.W P Z x x Z B x c n z z d z x k j c 6.j.a.6.7.a.p.6.a.a.a.p.R P P 7.g.g.D.D.D.g.l.g.N.N.N.m.f.P P x x x c x j d d d ",
"P H H g.G.n.I E R K m m n c c c j n j j g g g c ,.j.j.p.h.a.a.a.h.u.h.p.p.p.p.p.6.,.7.h.,.,.B B L F D S x j h j j p = = = * = = ",
"d.I L f.M.m.I 8.L H m n c h h g i c j g < i < g N p.j.h.j.k.j.j.h.h.h.u.h.s.s.e.p.,.,.,.,.s a N h k b h j N c c j j p 6 d d d d ",
"M.M.g.9.f.M.g.L S m m B n c v i < p g a p p 1 * 3 g c B p.s.s.j.j.h.h.l.s.s.R R s.s.B ,.N i p i c c B B N N N B j N B P g.G.(.A.",
"A C Z A J J F K m n c h g v a 2 i , 1 p 1 1 , * * * * = g j c B q.q.j.h.l.l.s.l.B n c c c i p p s c i.e.R N B c c B s.k.G./.G.l.",
"'.|.}.nXnXZ x z n q i e 3 1 a 1 , , , 1 , 1 , $ * * % % * * p j 7.G.k.k.k.k.e.N p p i g g g g c M B e.p.p.B R B x H P M.G.Z.N.N.",
"jXhXJXKX(.d d x = = 1 < 2 q 1 * 1 2 , 3 , , , , * - % * * * , i b ,.P e.h.y.B i N g i p e g M ,.6.p.d.s.d.R P P Z H J n.Z.Z.Z.S.",
"SXAXJXZXsX'.8 X   . O = d # o h 3 > > 3 1 3 % % % $ $ $ * * * 1 & & = j c N N j j i 6 g n B 7.7.d.g.l.g.R P P J P Z Z A E n.N.S.",
"fXAXSXSXJXKXL.S._.}.bXUXnXG..   = & $ % % % % : % $ > $ $ $ 3 3 & & & = j j j d = 6 c K a.g.d.f.m.M.g.f.Y J J J J J A Z A U ~ c.",
"SXfXfXSXaXBXBXNXKXVXnXNXNXCX_.7 - - % * > : + : ; ; : : > , , * p = = = j 6 j j z H d.M.M.M.f.E N.N.B.n.E E 9.f.E E Y Y Y U Y G ",
"fXpX8XpXBXrXaXMXMXMXBXCX6XNX6XS.# @ @ - + + + + ; : ; ; ; , , , * = = < j k m J I 9.n.f.E E E n._ n.n.n.n.n.M.Z.M.n.f.9.E U Y A ",
"8XSXpXuXBX8X2XBX2XtXBXBXaXBXDXKXS.J 6 & 3 > > ; ; ; ; ; + > , $ % * p g n B P 9.9.n.n.U U E E E Y U U U E E g.g.g.f.g.f.f.f.U Y ",
"uX8XpXtXiXrXiX2XtXrX2X1XeXiXrXBXNX:X].H.D.w.2 4 ; ; ; ; > > $ * , p v v M K 7.8.g.m.M.n.n.n.U A Y U Y I P K P P s.d.d.8.8.d.9.I ",
"iXiXiXrXrXrXwXwXwXtXwXtXtXuXiXaX#XU.E.R.R.T.y 4 > 4 > > > $ * * p p a s M B 7.8.F D F D J J Z Z Z S S x m B n n n k k n z m l 7 ",
"tXeXqXtXwXrXwXwX4XtXtX2XtXrXtXeX=XU.U.V.D.D.y $ 3 > ; 4 4 + % * , , a a y y y r t l t l l m l z z m n n n n c h g g q r 6 # 6 6 ",
"qXeX9XqXqXwXwXwXwX4X4X8XtXiXrXeXBX9X>XU.F.F.t o - O 4 % - - % * $ , 1 1 3 e y r r r t k l l l z h k h h h g q e = = 6 6 6 8 8 8 ",
"qXqXqX9X4XMXwXwXqXqX4X9XqXMXMXrXMXMXCXQ.W.~ 7   o O # < 6 = - @ $ $ 3 1 3 1 e e y h b b m m b m n h h q q < < 0 q & o 7 I.nXnXbX",
"qXqXqXqXMXqXqX9XqX9X3X1X3X4XqXqX4X5X,X~.K.U.P.I.I.R.bXnXnXvXH.w.7.e 0 0 e e e r k h h M n M m M b b h e 0 0 < 0 O 0.vXmXnXVXVXCX",
"3X1X1XqX9X3X9X0XMXqX3X1X5X3X4X4XqXqX4X3X3X3XCXVXVXCX-X$X-X-X-XbX].F O 6 0 r t y w y k b b b M M n b k w r r 0 r 6 H.bX:X>XCX0X3X",
",X,X,X1X3X1X1X3X0X3X3X>X>X3X4X4X9X9X9X0X3X>X3X>X#X+X[.Q.{.[.E.E.}.j.w.y 0 6 0 y h h h b b b M V M l b l t t t t V I.:X>X%XXXXX,X",
"1X&XXX=X=XoX=X=X=X=X3X5X=X3X4XCX0XMX0X>X>X=X;X^.Q.U..X+X+XE.U.E.E.R.R.T.0.t r r h h b b l t t t C D V V V V C V R.-X`.Q.=X,XXX,X",
"XXXXXX.XXX=X1X1X>X>X=X%X#X;X>X>XmX>X;X%X%X%X#X^.^.^.%X%X>X>X#XQ.U.R.R.F.0.M t M h b k t 7 T I.#XCX>XP./ T u T / E.E.^.^.#X&X,X5X",
"XXXX.X.X^..X&X%X&X=X;X>X;X#X$X$X$X$X@X#X$X@X$X^.;X;X%X;X>X>X;X%X$XE.F.0.F V b y n r 7 V P.6XVXVXVXMX3X$X[.U.U.E.^.-X-X;X;X&X5X3X",
"XX.X~..X!.!.!.!..X.X%X;X:X$X[.R.I.U.E.E.E.+X#X;X;X;X;X;X;X:X;X-X-X{.F.G V t t y m r D.bXnXCX>XCX0XCX>X>X-X-X$X-X-X-X;X;X;X>X3X4X",
"^.@X!.!.!.~.U.!.U.U.`.`.E.E.R.I.I.I.U.I.I.E.E.;X-X-X$XE.E.E.[.{.E.R.P.0.V V w.V 6 0.bXbX:X3X=X>X=X>X#X$X$X$X$X$X-X;X;X5X5X5X4X4X",
"@X^.^.Q.!.U.U.K.P.P.J.C.C.C.C.D.F.I.H.H.H.F.R.R.-X}.{.R.R.I.I.P.F.F.D.0.G w.F u t G E.E.U.-X#X=X$X*X[.`.[.$X+X$X#X;X;X>X5X5X2X2X",
"@X^.^.^.!.U.U.E.I.P.V.! c.~ G G I 9.m.D.F.F.F.F.}.E.R.I.F.F.D.N.c.c.0.G G w.w.w.0.G T.-X[.L.` U.).`.`.`.`.[.+X$X@X;X1X5X3X5X5X5X",
"U.E.Q.U.U.U.U.P.P.C.v.~ Y G V V t t l L 8.g.g.m.b.D.D.m.c.m.m.c.0.G G F w.c.b.b.F.R.R.R.I.U.`.Y.U.`.`.`.$X+X+X@X&X%X,X5X<X<X2X2X",
"W.W.P.P.P.P.W.F.V.! Y G D F V t t r 0 6 y S F S M S S F 8.8.9.9.8.0.0.0.w.w.b.F.T.F.R.R.I.S.).L.U.`.`.I.`..XU.!.^.&X,X,X<X<X2X2X",
"v.v.W.v.v.v.^ ~ G G G L D S t t y q q 0 0 0 r w r t l m F S L K K S F w.8.0.c.b.F.I.R.R.I.S.S.C.J.J.K.U.U.K.~.~.,X^.5X<X<X<X<X<X",
"^ ~ v.v.v.~ ~ Y G G G F S l t r 0 0 < 0 < < 0 0 q k z m m S H L K K K F L 8.c.m.D.F.F.C.C.) ` ` ` C.J.P.U.K.!.^.,X5X<X<X<X<X<X^.",
"T T T / G G G G Y I I I L m t 0 0 1 1 0 0 < 6 0 q w k l S S J L K K K I I 9.c.m.B.C.V._ _ ) _ _ J.J.J.K.K.!.!.^.^.5X5X<X<X^.<X<X",
"7 7 7 7 7 7 9 V D T D I L F m b e 0 0 < < 0 < 0 6 w k z m S L L 8.8.8.8.9.9.c.c.! B.V.` V.` ) ` J.C.J.P.W.K.~.^.^.5X^.^.^.^.^.,X",
"c.c.0.G C C 9 7 D C V V l t r 0 e 0 1 < < < 0 r j w z z V S J I 9.9.9.9.~ ~ c.~ ~ ~ ) ) ) ) ! ) ` ` C.J.K.K.Y.!.^.&X~.K.K.K.K.~.",
"7 t D Y Y G Y U Y 0.0.w.S t y t e 0 0 0 6 q w j w z z l l C G I c.B.B.c.B.c.c._ ) ! ~ ~ / ~ ^ ! ) ) ` J.L.J.Y.U.^.!.K.K.( ( ( ( ",
"# 5 5 5 5 5 5 5 5 8 8 7 6 6 r r r e q r e e h w k 7 t l C C D G c.V.C.V.V.V.V.) ` ) ) / / ^ ^ ~ ~ ~ ) ` ^ ( ( ] W.v.J.J.J.( W.^ ",
"# # # # 5 5 8 t V V F V t r 6 6 & 0 0 q e w q 6 k z z t t C D G ~ c.V.c.V.V.) ! / ) / ~ ^ ! ^ ~ [ A / A / u u u / / ^ ^ C.V.v.! "
};
