/* XPM */
static char *CN1683236889[] = {
/* columns rows colors chars-per-pixel */
"64 64 249 2 ",
"   c #0D001F",
".  c #010124",
"X  c #0B022D",
"o  c #050129",
"O  c #1A0228",
"+  c #0E0132",
"@  c #130235",
"#  c #1B0235",
"$  c #15013A",
"%  c #1C023B",
"&  c #22022D",
"*  c #230233",
"=  c #2A0134",
"-  c #24033D",
";  c #2B043B",
":  c #28093C",
">  c #32043C",
",  c #32093E",
"<  c #3E0E3D",
"1  c #501037",
"2  c #6B133A",
"3  c #1C0747",
"4  c #240442",
"5  c #2B0543",
"6  c #2D0A45",
"7  c #2D0C4B",
"8  c #250A46",
"9  c #350C43",
"0  c #390C44",
"q  c #350D4A",
"w  c #390E4A",
"e  c #380641",
"r  c #2C134B",
"t  c #3B1146",
"y  c #35114C",
"u  c #3A124B",
"i  c #3A144B",
"p  c #2C1654",
"a  c #331453",
"s  c #3A1453",
"d  c #3B1C5A",
"f  c #3A1A56",
"g  c #3A0C52",
"h  c #39275D",
"j  c #2E1D64",
"k  c #352265",
"l  c #3B2564",
"z  c #3B266B",
"x  c #3C296D",
"c  c #362769",
"v  c #3A3268",
"b  c #352B71",
"n  c #3C2C72",
"m  c #3C2570",
"M  c #3D3275",
"N  c #2F2267",
"B  c #47174A",
"V  c #551B48",
"C  c #441C54",
"Z  c #4C1D52",
"A  c #431A58",
"S  c #50194C",
"D  c #6B1B43",
"F  c #58224D",
"G  c #4B2255",
"H  c #44215D",
"J  c #4B235A",
"K  c #462559",
"L  c #56285A",
"P  c #5A325F",
"I  c #672957",
"U  c #742B58",
"Y  c #6A365E",
"T  c #77355B",
"R  c #672349",
"E  c #451D64",
"W  c #581F6C",
"Q  c #442563",
"!  c #4B2563",
"~  c #442B64",
"^  c #4B2A65",
"/  c #44246D",
"(  c #452B6C",
")  c #4B2C6B",
"_  c #4B266C",
"`  c #532C6B",
"'  c #572C64",
"]  c #44326C",
"[  c #4B326D",
"{  c #483569",
"}  c #553263",
"|  c #53336D",
" . c #5B356C",
".. c #59396A",
"X. c #432D73",
"o. c #4B2E72",
"O. c #452773",
"+. c #542B72",
"@. c #453273",
"#. c #4C3474",
"$. c #4C3B75",
"%. c #4D3A7A",
"&. c #483777",
"*. c #533473",
"=. c #5B3573",
"-. c #533B74",
";. c #5C3B74",
":. c #543C7A",
">. c #5C3D7A",
",. c #543679",
"<. c #653A6C",
"1. c #6C3C6B",
"2. c #663666",
"3. c #783A68",
"4. c #633C73",
"5. c #6B3C72",
"6. c #673977",
"7. c #763A73",
"8. c #6B2B66",
"9. c #4D4276",
"0. c #5B4275",
"q. c #54437B",
"w. c #5C437C",
"e. c #584879",
"r. c #5A416D",
"t. c #6B436D",
"y. c #7B446B",
"u. c #77466C",
"i. c #6C4374",
"p. c #63437C",
"a. c #6B447C",
"s. c #634B7C",
"d. c #6B4A7C",
"f. c #664775",
"g. c #744474",
"h. c #7C4474",
"j. c #754B73",
"k. c #7C4A73",
"l. c #73457B",
"z. c #744C7B",
"x. c #7C4B7B",
"c. c #7C467A",
"v. c #78537B",
"b. c #6C527D",
"n. c #7C455C",
"m. c #87395B",
"M. c #943457",
"N. c #863966",
"B. c #953D64",
"V. c #813B74",
"C. c #832A60",
"Z. c #AD3E60",
"A. c #A33D53",
"S. c #CA3E63",
"D. c #8E465B",
"F. c #A6445A",
"G. c #B84A5D",
"H. c #82436C",
"J. c #89456A",
"K. c #97476A",
"L. c #844B75",
"P. c #8C4C73",
"I. c #824E7C",
"U. c #8B4D79",
"Y. c #874675",
"T. c #934673",
"R. c #944C72",
"E. c #9B4C74",
"W. c #964C7B",
"Q. c #84547C",
"!. c #8C537C",
"~. c #885678",
"^. c #9D5B7C",
"/. c #965478",
"(. c #9A536E",
"). c #A64A69",
"_. c #B44B66",
"`. c #A7536B",
"'. c #B7546A",
"]. c #A74C73",
"[. c #A75678",
"{. c #B75877",
"}. c #B54C74",
"|. c #8B617D",
" X c #B66278",
".X c #B26175",
"XX c #C4586D",
"oX c #C85B77",
"OX c #D55577",
"+X c #DF496C",
"@X c #E75979",
"#X c #C96479",
"$X c #D7677A",
"%X c #D8737C",
"&X c #CC7178",
"*X c #E36C79",
"=X c #563C81",
"-X c #5A4382",
";X c #6B4B83",
":X c #654884",
">X c #744C83",
",X c #7B4C83",
"<X c #764A86",
"1X c #6A5287",
"2X c #7B5484",
"3X c #795988",
"4X c #755792",
"5X c #7E618C",
"6X c #834D82",
"7X c #845484",
"8X c #8B5B84",
"9X c #875687",
"0X c #965A86",
"qX c #885B94",
"wX c #A55B84",
"eX c #B65C83",
"rX c #876488",
"tX c #976589",
"yX c #886792",
"uX c #986B93",
"iX c #A5638B",
"pX c #AA6688",
"aX c #B96587",
"sX c #A96B94",
"dX c #B46C96",
"fX c #B67498",
"gX c #B07293",
"hX c #AE77A7",
"jX c #CB5986",
"kX c #CB6C8C",
"lX c #C76785",
"zX c #D66A87",
"xX c #C9738A",
"cX c #D97688",
"vX c #D46B91",
"bX c #C77797",
"nX c #D77896",
"mX c #C96C90",
"MX c #E26C86",
"NX c #E47989",
"BX c #E47A94",
"VX c #CA7CA2",
"CX c #BF82AB",
"ZX c #D78295",
"AX c #E98597",
"SX c #EA858F",
"DX c #C885A9",
"FX c #DB85A4",
"GX c #E88CA3",
/* pixels */
"  O & & * * - 4 4 5 5 q 5 ; - ; 4 5 5 5 w ! =.` ` ` +.| | ;.;.4.4.<. .} ) ) ( l o./ Q ^ Q 7 3 8 8 4 % 7 a d s s 5 : : # @ X   . ",
"  O O & # * - ; 5 5 5 q 5 4 : 5 ; 4 4 ; w E +.` ` +.` ` ` [ | |  .<. ._ ( / / Q d Q ! _ E 8 $ 3 4 7 f H ! A 9 - 5 : : : O X   . ",
"  O O & * * - - 5 5 e 6 5 ; : ; 4 7 5 4 q A _ ` ` _ ! ! ! ^ ! ~ L  . .| ) Q ( ^ Q J A A f 7 4 4 % r f h d y 5 : - % # @ X   . . ",
"O O & * * * ; ; 5 5 5 5 5 - - 4 4 5 7 5 5 g Q ` ! Q H H h Q H A K | ;.;.#.( ) ! H J Z J A q - % % % : 8 8 4 8 8 % # @ X o . . . ",
"O & & : : : : 6 5 q 6 7 6 5 : 5 4 4 5 5 5 q A ! E H H d d d l d f ! =.;.| ) ^ ! J L Z Z t = * 6 # % - % % % # @ @ $ + X . . . . ",
"& & & = : , 6 , q q q q q 9 9 7 4 4 4 4 4 6 s ^ ! H d f a y a a y H | *.` ) ! G G B B V L B ; ; : - # % - % $ @ @ $ + X o . . . ",
"& & & , , , r t q q q q i y q q 7 4 4 5 5 5 s ! A H A a y 7 p a h ^ ,.*.) ^ J G Z I 3.0XtX6XB O 9 : % # % - - - % $ + X X o . o ",
"& & = = , < t r q q q 9 i q q 6 a 7 7 7 q 5 u H C A A f 7 r a l #.>.w.;.| ' J F L.sXDXhXsX0X5.Z 9 6 6 : - - % % % @ $ + X o o . ",
"& & = , 9 9 9 9 q q q q w i q u a a a 6 q g B G G i i y a 7 p #.*.*.[ )  .C G h.CXgXwX^.L.g.c.,XZ ; q 9 - 7 - - 8 $ $ @ @ X X o ",
"= = > , , , 9 y q q q w i q u y a a 7 7 u t q < C C C q y a a ( l ) ) ` | L L /.fX0XP.P.L.k.g.g.>X<XA ; ; * 5 4 % : % $ @ @ + X ",
"= = , , , r 9 y q q q q w u u i f a a q w t t B B L J 9 4 a d ( ( ( ) ) H ' F sXgXR.J.J.Y.h.l.6.6.qX<XA q q % # % % % % : @ $ + ",
"= > , , , < 9 9 6 9 9 q q q w q s s s u 0 B P g.hXCXyXP q f a a l d K ^ B Y F fXpX(.K.P.h.5.5.6.6.6.qX` - 5 - - % % % % @ $ @ + ",
"> > > < , t 9 9 9 9 9 q q u 0 u q q q w 0 L Q.uXrXrX7XZ : f h d f d ) 4.L L 1 tXbXpX/.P.3.5.6.:X;X6.4.4.d * y # % % 8 $ @ @ + X ",
"> > > > , 9 9 9 9 9 9 9 0 q w u s q q 0 B 2.8XtX9XrX9XL , i i y a ^ ;XqXg.Y 1 /.DXpXR.H.g.a.:X>.=.6.` >.;X^ 4 $ 3 % $ $ @ $ + + ",
"> > < > , , , , , 9 q 9 w 0 w w s s i t < 2.8X~.tX8X9X..y y y 7 8 *.4XqX9XI.J.fXZXpXP.H.g.a.:X=.p.| =.~ e.s.p p % $ $ $ $ $ @ $ ",
"> > > B t , 9 9 , 9 9 q 0 w w w q s Z < < 1.tX0XtXQ.Q.2.t 9 i i A <XyXl.c.Q.iXDXgX[.^.Q.5.4.=X-X| 0.=.| ~ 9.e.p $ 3 $ @ $ @ $ @ ",
"> > e 0 0 e 9 9 , 9 w w w w w w g g w 0 F k.tXtXtXx.7X1.> * y : 6.qX7Xl.x.8XgXgXpXpXwX!.g.i.6.:X;.=.*.| [ $.( p 3 $ # % # # - r ",
"; > 9 e 9 9 0 e 0 9 9 0 q e q g g A J g.rXtXtX|.uX7X2Xi.C G ..L ' 7X2Xz.Q.~.iXgXpXgXpX0X7Xl.>.=.4.=.;.*.[ $.#.h 3 % % % # O # , ",
"> > 9 9 e 9 0 9 q t 9 t q 9 q w B ' c.8XCXuX|.tXv.v.2X2X>X2X3Xb.P b.v.v.z.Q.tXtXfXgXpX0X6Xc.6.+.=.=.=.| ~ [ [ l 7 % @ $ : @ # : ",
"> > e 9 0 w e 0 9 9 t y w s w e B ,X0X7Xv.|.|.|.rX9X2X3X2X3Xv.j.r.v.b.j.j.~.tXpXgXpX/.U.c.7.6.=.+.=.*.[ ( ) [ l r 4 $ % % : $ $ ",
"0 0 e 0 9 9 0 9 9 i 9 : , y t : P |.|.|.|.tX|.rXyXyX3Xz.v.v.v.rXt.j.v.j.u.|.tXgXpX/.J.u.1.5.4.=.=.+.*.) ) ) ^ d $ $ # @ X o + $ ",
"B t 0 0 9 0 9 9 9 9 9 , , , t B |.|.|.v.|.rXb.CXrXrXv.j.v.~.rXtX|./.|.|.u.~.|.^.^.~.y.u.t...,.,.,.o.o.+.[ ) ^ d 8 % % 3 r 3 3 3 ",
"Z B t , e e 9 9 9 9 i } K < G t.|.v.b.j.|.5X5XrX3Xv.v.j.k.y.P.(.fXpXZXpXP./.~./.|.J.t.t.f.-.$.&.%.o.+.*.` _ ^ K [ ~ l ] 9.9.v N ",
"Z B u e 9 6 9 9 9 , P 3Xj.G <.uXj.v.b.b.b.5XyX5X3Xv.u.k.P.[.fXbXnXbXZXfX[.pXpXgX/.k.Y <.r.9.&.$.#.#.*.,._ _ | ` ~ | e.-X:.$.{ @.",
"Z B e ; > 9 t 9 , } z.2Xt.t.Q.v.v.b.b.t.;X5X5X3Xz.k.y.J.(.bXFXGXvXaX[.eXeXfXDXDXiX8Xk.2...q.$.M @.#.#.+.` ` ) ^ [ ~ 9.-.] ^ h H ",
"A B e e t , , * G <.z.z.2.1.Q.v.f.b.;Xs.<X4X<Xl.x.y.D.(.xXGXAXxXaX{.[.E./.iXdXhX0X0XQ.5...| #.o.@.#.*.+._ ` _ Q ~ h { ~ ~ ^ H J ",
"Z 0 > 9 t , , u ' i.z.z.u.u.Q.u.z.f.d.a.;X<Xz.I.L.~.[.bXAXAXBXlX X^.R.P.V.Y.0XuXI.6X6X7.<.+.+.+.#.) o.o._ _ ) / l ( { ~ ! J B B ",
"L Z B , ; 9 J i.2Xz.1.1.2.y.~.k.x.d.>Xl.l.c.c.P.J..XZXAXBXSXNXcX[.~.P.k.1.7.6X6Xh.Y.7.7.6. .=.` [ ] ) o._ _ / / l ] { } L S 1 V ",
"2.2.Z 0 0 L i.,X,Xg.1.3.T I n.u.L.j.k.L.c.Y.3.J.m..XZX%X%XSXBX#X^.Q.k.h.g.a.l.l.g.7.5.5.8.6. .` [ ~ ~ ^ W / / O.k v ~ } } V U K.",
"<.2.L G ' i.a.1.1.2.1.3.I R D.^.J.y.H.y.3.T.K.K.F. X%X&X&XSXBX X[.I.z.z.d.a.a.i.a.l.>X5.=.` ` { ~ v ~ ^ / / m m c c h ..L U [.bX",
"'  .'  .4.l.5. .5.1.Y I F T pXDX^.~.(.J.K.eXaXxX&X%XSX%X&X&X&X XiX7Xc.>Xa.:Xp.4.4.a.;Xf.>.#.v { ~ h ~ ( / O.m z M c ~ } V U mXnX",
"P I 2.<.4.4.=.<.2.1.3.3.J.[.nXxXxX&XlX.XlXZXcXcXSXSXZX%X#X X#X XdX0X6X,Xa.4.:Xw.p.0.;.p.s.q.9.h h h ~ / / O.E z l h K L 1 N.nXvX",
"L 2.t.f.p...|  .u.R T [.nXBX*X$X*X%X*XSXNX%XMXSXBXNXBXBXvX X{.pXwX9Xc.g.f.0.q.p.>.;.4.:X;X1Xq.{ h h v l / W =XW E A G V 2 {.kXoX",
"L '  .4.;.f.=.2.Y R m.lXNXNX*X*X*X*X*X*X%X*XNXAX$X#XjXlXkXpX[.[.iX0Xx.i.f.0.0.w.:Xp.:X;X4X1Xs.e.h v ~ Q W W =XV.W B 1 1 J.xXlXZ.",
"P 2.4.i.>X3Xz.g.3.m.[.cXcX#X$X$XMXMX*X$X%XSXAXAXlXoX{.eXeXwX^.^.0X9Xx.z.f.0.e.1X:Xp.:X;X;Xa.f.0.s.b...B S 8.8.V.D D D 2 lXlXjX_.",
"G P 5.z.7X9XQ.J./.[.nXnX#X'.oXXXzXzXzX$X$X%XcXcX{.].E.R.!.P.!./.0XI.x.z.f.e.-X1X:X:X6.4.6.;.;...P u.1.P 8.3.8.N.wX].lX}.nXoX_._.",
"G } i.g.k.P.R.(..XxXnXxX'.`.{.'.oXzXvXzXOXlX#XaX[.!.U.U.L.L.U.!.L.x.z.j.0.e.0.b.p.p.:Xa.4.;.4.i.u.^.sXfXsXR.K.aXnXzXBXNXBXoX_.G.",
"`  .t.c.y.n.(..XxXZXcX{.).].].].{.eXvXzXjXXX}.].R./.!.Q.L.h.y.H.k.j.t.i.f.s.s.s.w.p.6.:Xa.i.a.2X!.gXgX0X/.R.(.{.lX#XMXzX$XOXXX_.",
"_ ' <.y.J.D.).#XZXAXlX).].).K.E.[.[.{.oXjX}._.K.R.L.k.u.h.Y.T.V.L.u.t.i.f.b.s.:Xw.;.;.p.p.a.>X9XtXsX!.T T ^..X`.#XMXNX@X$X#X_.'.",
") ` 1.!.(.F.'.%XNXcX'.).].E.T.wX{.`.}.zXBXMXlXaX/.L.u.u.U.wXdXmX0X9Xj.t.a.f.s.e.p.w.0.w.p.f.1X9XtXL.Y.L.k.y.J.K.{.MX$XS.MX$X).F.",
"! | Y J.[.&XcXNXSXcX{.].E.T.T.[.`..X&XAXcXzXnX{..XtX~.T R.bXVXeXdXhX0X5.a.a.=.p.0.e.0.s.4X1X5XyX6X7Xz.l.t.1.H.N.{.lXjXoXXX}.).K.",
") ' 8./.lXcX#X#X$X#X'.).E.R.T.R.D..XSXSXXXXXoX`.K.iXP.3./.FXvXB.0X0X6X,X6Xl. .p.-.0...e.3X3X5XyX,X6Xl.l.i.<.L.W.[.{.{.lXmXlX[.B.",
"! J 3./.&X#XG.G._.).).].E.K.T.(.'.&XSX&X$XAXZXnX[.R.Y.iXVXVXlX).V.V.6X6XqX<X=.0...e.r.e.3XrXyX9X,X,Xa.a.a.i.6XqXL.T.J.K.E.[.T.3.",
"C Z 3.E.aXG.G.G.Z.).K.E.T.J.E.{.%XSX%X%XSXGXbX[.wXN.V.dXVXwXK.E.7.<X<X6X9X>X4.;...e.r.b.5XrXrXQ.c.6Xc.,X,X,XqXqX,Xx.g.3.Y 8.7.V.",
"Z Z T K.xX{.'.F.Z.E.E.W.R.B.(.nXNXNX&XZXZX X`.J.V.U.0XsXiXR.H.y.g.,X>Xa.6.;X4.;.{ r.r.b.rXv.L.!.[.sXtX0XqXqXqX6Xf.f.d...' ' ' 8.",
"Z S R m.&XlX`.A.B.B.T.W.T.m.].nXNX$XXXcXxX(./.!.7.0XhXuX8Xv.u.t.s.;Xd.p.6.;Xp.;.{ ..} j.Q.u.L.wXbXZXdXpXiX0X6X:X..9.{ { Q ! _ W ",
"S V R K.kXkX`.).B.V.T.J.J.K.}.vXzXOXzXnXaXR.N.2.7.<XqXqX4Xi.r.f.e.q.e.s.:X:X;Xp.b.s...t.k.J.[.mXZXcX{.{.[.T.x...$.{ v v z O.+.+.",
"B S R aXvXzX).).].wX0XV.J.[.lXBXMX$XBXlXJ.J.c.x.6.6.:X:Xp.w.0.q.e.9.9.w.6.w.:X:X5X4Xt.1.H.R.aXnX&X'.A.K.T.3.1.p.{ @.M x z m m E ",
"p K N.lXzX#X'.F.).}.E.L.y.^.nXNXMXBXvXeXP.h.,Xa.6.-X6.>.4.-Xq.:.q.9.:.,.=X:X4X4X:Xb.f.Y m.`.zXBX#X`.T.N.7.6.6.+.o.@.X.X.x z m m ",
"p C C.jXOXXX'.F.F.}.K.T k.^.vXjXzXcXlXeXU.h.>X:X>.>.>.>.,.:.>.:.q.$.%.=X=X:X-X-X1Xb.t.Y K.#XzXzXaX/.T.g.<.=.+.o.#.#.o.n n z z m ",
"A S C.XXzXXXG.F._.jX[.T.~.gXvX#XcXzX{.[.9XI.<X>.;.:.:.*.%.,.:.$.9.$.#.#.=X=X=X:.1X1Xj.u.^.xXBXvXaX[.U.g.6.=.,.o.#.@.o.( x m n m ",
"S 1 D Z.#XG.F.A._.vXeXN.(.[.{.}.nX#X(./.6Xc.6.6.,.,.*.-.*.#.#.@.&.$.o.O.=X=X:.q.e.1X3Xv.^.dXvXjXpX0XU.l.4.*.%.o.O.O./ z z x z b ",
"2 2 M.XXoXZ.G.'.].mXeXB.`.[.{.'.xX{.K.J.c.5.a.,.:.:.-.*.#.$.#.%.&.&.@.#.o.,.:.-X9.1X1Xb.I.wXeXeXwXI.c.5.| ) @.z x z l l z k k k ",
"M.XXzXNX$XXX#XnX{.jX].}.xXxX X.XlX.XK.P.c.5.:X>.-.=.-.*.#.#.#.&.M &.@.@.@.#.=X-Xe.1Xb.b.c.0XwX0XL.3.i.4.[ X.X.x l l z l l j j p ",
"S.MXMXOXXXXX$XvX}.].B.eXmX&X X`.[.[.J.L.h.a.:X>.-.:.#.$.#.@.@.@.@.X.@.X.#.:.q.9.s.e.r.e.l.,XY.V.5.<.i.;.) x n x k z X.#.( l z c ",
"S.@XXXZ.'.lXvXkX].B.B.eXlX{.`.D.(.R.y.u.g.p.p.*.-.$.#.[ { @.@.@.&.X.X.@.%.q.%.{ 9.{ 9.r.4.6.7.7.5.<.q.,.( x x N k ( %.%.$.@.@.@.",
"@X@X#X'.'.}.eXeXW.N.B.].jX].K.D.D.iX8X9Xa.;.:X%.#.-.$.#.] @.@.@.&.n &.=X%.#.&.$.$.9.$.$.p.;.+.6.>X1X:X#.m b b j j x @.#.#.%.%.@.",
"+XOX'.).).B.Z.B.N.3.V.eXeX}.J.n.J.tX7X7Xa.;.:X%.#.#.#.[ @.] @.@.X.X.X.&.&.X.@.@.$.$.[ [ :.=.,.:X1X:X-X%.n b b b c @.$.#.@.@.@.c ",
"+XOX_.M.B.B.M.C.H.y.P.wXwX[.~.J.~.8Xg.z.p.,.-X*.*.#.[ [ ( n M @.m X.=X@.@.@.@.$.@.#.] #.#.*.>.1X:X-X%.@.M b b b n $.$.#.@.@.z j ",
"OXXXB.m.m.N.N.N.H.L.Y.P.W./.!.~.L.x.<.4.>.*.:.%.#.#.#.] ( ] M @.n %.=XM ( @.@.M #.@.@.#.$.$.-X1Xw.$.@.M b b b b n @.@.( x ( c j ",
"}.].N.C.C.V.V.V.1.g.g.h.Y.Y.c.7.g.t.<.;.,.o.#.#.*.o.) ( ( @.@.@.M =X=X%.M n @.X.&.O.@.@.&.9.9.e.$.{ M M M b b b n X.( / x x z N ",
"N.N.C.3.V.C.V.7.1.<.<.<.7.5.5.5.2.<. .=.*.,.#.,.o.) ) ( ( X.@.@.&.%.-X%.@.@.X.X.X.O.X.@.@.9.e.9.#.#.@.@.M b b b M X.z k l b c j ",
"U 8.U 3.V.V.7.h.5...} L ` 8.8.6.4.<.<.| +.,.#.o.o.) ( ( ( @.&.&.9.%.=XM =XM n =XX.m @.$.] 9.9.9.M &.-X&.M M b c n x z k N m N j ",
"I I I I 7.7.7.7.<.} }  . .' +.6.1. .=._ o.#.X./ o.) ) Q o.@.&.&.$.$.@.X.M b m m O.O.,.$.v @.e.9.v M -X=XM b N N k z m k k b N 3 "
};
