/* XPM */
static char *CS1683236889[] = {
/* columns rows colors chars-per-pixel */
"64 64 247 2 ",
"   c #091E2D",
".  c #081F31",
"X  c #0B222D",
"o  c #19232A",
"O  c #0D2233",
"+  c #03263A",
"@  c #0B2639",
"#  c #042C3D",
"$  c #0B2A3D",
"%  c #052534",
"&  c #122534",
"*  c #1D2A33",
"=  c #132B3C",
"-  c #1B2D3B",
";  c #122838",
":  c #05323E",
">  c #0A313E",
",  c #1B313D",
"<  c #15343E",
"1  c #232D35",
"2  c #252E36",
"3  c #2A3437",
"4  c #24323A",
"5  c #2C353C",
"6  c #2E383D",
"7  c #273135",
"8  c #32383D",
"9  c #232B2E",
"0  c #032D42",
"q  c #0B2E41",
"w  c #092E48",
"e  c #122E41",
"r  c #043244",
"t  c #0B3344",
"y  c #043946",
"u  c #05354B",
"i  c #0B354A",
"p  c #053A4C",
"a  c #0C3A4C",
"s  c #0C3947",
"d  c #133244",
"f  c #1C3442",
"g  c #133945",
"h  c #113649",
"j  c #123A4B",
"k  c #1C3C4B",
"l  c #1B3846",
"z  c #063B53",
"x  c #0B3D52",
"c  c #083853",
"v  c #163D52",
"b  c #233543",
"n  c #2B3542",
"m  c #233946",
"M  c #2D3A43",
"N  c #243C4B",
"B  c #2C3C49",
"V  c #223748",
"C  c #333C44",
"Z  c #333E49",
"A  c #383C43",
"S  c #243749",
"D  c #0B414D",
"F  c #1B414C",
"G  c #0C4255",
"H  c #0E4359",
"J  c #134255",
"K  c #1C4354",
"L  c #12455A",
"P  c #14495D",
"I  c #1B485A",
"U  c #18505F",
"Y  c #2D414D",
"T  c #25444E",
"R  c #33424C",
"E  c #3B444C",
"W  c #3B4448",
"Q  c #244253",
"!  c #2D4452",
"~  c #254B5C",
"^  c #2C4A5B",
"/  c #2A4955",
"(  c #334553",
")  c #3B4652",
"_  c #334955",
"`  c #3B4A54",
"'  c #3B4D5B",
"]  c #334C5B",
"[  c #3D515D",
"{  c #33535D",
"}  c #2D535F",
"|  c #154B62",
" . c #194C62",
".. c #1C5165",
"X. c #1F5569",
"o. c #284E61",
"O. c #2C5263",
"+. c #26566A",
"@. c #345462",
"#. c #3C5B6B",
"$. c #385767",
"%. c #295E72",
"&. c #375E71",
"*. c #394E61",
"=. c #386778",
"-. c #366370",
";. c #43494D",
":. c #434C53",
">. c #424E59",
",. c #4A4E51",
"<. c #44535C",
"1. c #4B555C",
"2. c #49555A",
"3. c #52585C",
"4. c #435562",
"5. c #4C5A63",
"6. c #4B5D69",
"7. c #455A67",
"8. c #525D64",
"9. c #565F67",
"0. c #465F70",
"q. c #49626C",
"w. c #5A6266",
"e. c #54626C",
"r. c #5B646B",
"t. c #59656A",
"y. c #496776",
"u. c #5C6B73",
"i. c #566976",
"p. c #58717B",
"a. c #48717B",
"s. c #626B6D",
"d. c #636568",
"f. c #626D73",
"g. c #656F77",
"h. c #647176",
"j. c #65737B",
"k. c #6A757C",
"l. c #6B7578",
"z. c #737A7E",
"x. c #757879",
"c. c #74756D",
"v. c #61635B",
"b. c #7E807B",
"n. c #81847D",
"m. c #376F83",
"M. c #5A7685",
"N. c #4B6F82",
"B. c #6C7B83",
"V. c #677985",
"C. c #727C83",
"Z. c #7A7E83",
"A. c #727F89",
"S. c #667F92",
"D. c #6A828A",
"F. c #75838B",
"G. c #7B868C",
"H. c #7A8488",
"J. c #6C8795",
"K. c #7C8B94",
"L. c #778996",
"P. c #7B939E",
"I. c #6C909E",
"U. c #7A97A4",
"Y. c #6390A3",
"T. c #838A8D",
"R. c #8B8C8C",
"E. c #848688",
"W. c #96938A",
"Q. c #828D94",
"!. c #888E94",
"~. c #8C9395",
"^. c #8A959B",
"/. c #85949A",
"(. c #949394",
"). c #949A9C",
"_. c #98989A",
"`. c #928E8E",
"'. c #A39E9A",
"]. c #A4978E",
"[. c #9DA29E",
"{. c #A8A19C",
"}. c #8D9BA3",
"|. c #8699A5",
" X c #939DA3",
".X c #9C9DA3",
"XX c #929FAA",
"oX c #929FB0",
"OX c #A29EA2",
"+X c #89A2A8",
"@X c #9CA2A6",
"#X c #9CA5AA",
"$X c #96A4AA",
"%X c #8CA9B4",
"&X c #98AAB5",
"*X c #9AB2BB",
"=X c #A3A6AA",
"-X c #A5ABAD",
";X c #ABABAC",
":X c #A8A6A5",
">X c #B3ACA9",
",X c #B6B3AD",
"<X c #AAADB3",
"1X c #A2ADB4",
"2X c #ADB3B5",
"3X c #A6B5BB",
"4X c #B3B3B4",
"5X c #BBB5B3",
"6X c #BCB9B6",
"7X c #B4B5BA",
"8X c #B5BABC",
"9X c #BBBABC",
"0X c #B8B7BA",
"qX c #ACB1AE",
"wX c #C2BDBB",
"eX c #C1B9B5",
"rX c #BBC0BC",
"tX c #C5C1BB",
"yX c #9CB7C6",
"uX c #A9BAC3",
"iX c #BCBDC2",
"pX c #B4BCC4",
"aX c #C1BEC2",
"sX c #ACC3C9",
"dX c #BAC4CB",
"fX c #B7C4C9",
"gX c #BAC8D2",
"hX c #BAD1D9",
"jX c #ADCAD5",
"kX c #9FC0C9",
"lX c #C4C3C3",
"zX c #CBC9C5",
"xX c #C4CACA",
"cX c #CCCACB",
"vX c #C8C6C6",
"bX c #D3CDCA",
"nX c #D3CDC6",
"mX c #CDD2CD",
"MX c #D6D2CD",
"NX c #C6CCD3",
"BX c #CDD4D8",
"VX c #D8D6D4",
"CX c #D3CFD0",
"ZX c #E1DAD6",
"AX c #CFDAE2",
"SX c #CCE3E9",
"DX c #EDE8E5",
/* pixels */
"M M 6 6 8 8 8 8 A A A A A n Z Z n A ) ) ) ,.1.9.d.g.g.x.G.E.Z.E.E.!._.OXOX_.(.(.].(._.;XaX0X8XiX2X-X XT.B.d.8.7.>.4.4.4.4.4.Z B ",
"M 6 6 6 5 8 8 8 8 8 A A A A Z Z ) ) Z ) :.1.1.3.r.V.C.Z.E.!.E.E.(..XOXOX:X:XOX:X:XOX;X0X0XaX9X0X8X3X@XQ.C.f.9.9.9.6.5.4.4.*.*.N ",
"M n 6 6 5 5 5 5 8 n A A Z Z ) ) >.) ) ) >.1.9.4.9.g.C.Z.!.^.!._.OX=X7X4X0X4XaX0X7X0XaX0XiX0X0X7XqX=X).G.Z.g.V.d.r.e.6.4.4.*.Z N ",
"M n 6 n 5 8 n 5 8 A n A Z ) ) >.>.4.6.4.1.1.9.9.d.B.C.C.G.!..X.X1X<XpXiXaXiXaX0XaXaXaXpX;X<X<X=X).(.R.H.Z.x.V.V.9.6.5.4.4.>.*.*.",
"n b n n 8 n n C Z B B Z Z ) *.4.4.6.9.9.9.9.N.d.V.A.K.!.!.^.oXoX;X4X0X0X0X0X0XiXaXaXaX:X.X_._.`.R.R.E.E.Z.Z.B.d.f.r.e.5.4.4.>.' ",
"n M n n n A C n C Z B Z ) *.4.4.6.6.7.6.N.9.9.N.9.M.V.A.L.L.!..XOX;X<X0X0XiXaXaXaXaXpXOX!.R.E.E.R.E.E.!.`.E.E.A.C.h.r.e.5.4.<.>.",
"b n b n n A C C Z B Z ^ ! *.*.4.7.4.*.*.) ) ) Z - n n ) 4.) 4.M.!..X>XaXaXaXaXaXaX5X:XOX_.`.`.(.`.`.`._..XOX.X.XQ.Z.k.j.p.u.i.u.",
"4 n b n n n n C B Z B Z ! ^ *.*.*.>.*.S b O . & & & . - - . - ) x.E.>XaXMXCXaXaX5X>XOXOXOX_.OX:XOXOX.XOXOX<XoXOX X^.Q.K./././.|.",
"b b n n n C M M ) B Y ] ] ! / Q *.! S = . O & & @ & & &   S S 1 d.`.eXaXbXcXwX>X4X5X5X5X>X;X;X5X<X.X<X=X<XpX1XiXuXQ.k.B.P.$X*XuX",
"1 b n n n Z R R Z B R _ T T N k S S f ; . ; ; ; O & @ &   *.*.e 3.R.wXaX9X,X9XCXlXcXzXdXcXVXCX0X7XpX<XuXpXiXuX&Xr.4.' <.' q.L.*X",
"n B Z n n B R Z ) ' ' _ N l l k - - & O O O O . & . @ & e M.oXS. XpXaXaXfXxX7X@X@X9XcXxXcXBXcXpXpX<XA.!.&X|./.L.B - ; ; O f 7.M.",
"S n B C Z R <.t.j.V.p.7.Y f < f - 1 & & O O . . e . & O b S.yX&XoXpXiX=X~.D.3.6 M e.}.dXpX#X}. X&XS.*   f   O b l & % @ ; < l T ",
">.Z Z >.) ) e.H.&X&X/.p.[ , ; = & o     & & O & = . = ; O Z N.0.7.9.u.V.i.f   X , = N 6.6.N & * - e & @ N l @ % @ O d d $ % $ d ",
"4.) Z 4.' <.u.K.3X*X|.V.q.m X & O . . & & & . . ; . ; & . . e e @ . q B $.N d d T > . % @ = e d S w e e + @ q d $ + q q # # $ q ",
">.) 4.5.r.j.F.^.^.^.F.k.p._ X ; & O & & & . . & O . ; . e . e e q e w q w q q r : s h t t q $ + d w + h w + O.O.v q q q q q q 0 ",
"V.V.g.V.k.F.K.F.Q.Q.F.D.F.[ ; X o & & ; - & = e . ; e . S e e e d 0 + 0 0 + + c r t 0 q t q 0 q . h + w 0 c S.N.I j h h q q d $ ",
"9.V.h.u.h.t.t.F.G.9.9.V.V.L.D.! . f e . f Z N.U.N e . . e @ . q + + + $ 0 q t t t y y t t : : t w q # > g J K U +.I j w d $ ; - ",
"B Z R R R M A >.g.4.4.6.6.A.P.V.q . e N e @ *.S.f e q e e q @ @ $ # q q # q $ # t > $ > t > : > + + > d s : : # x H c 0 q - * o ",
"4 4 , 4 4 2 4 M Z Z >.4.' [ [ ! ^ $ d l w &.I.M.$ ; $ $ @ . q + q q t t t t t $ g t > t : : : t s i s > : # r x u x +.o.< = 7./.",
"4 * 4 4 2 4 4 4 n B R _ _ ! N m N f f @ S U.yXM.@ = e $ e e e . q q q q s d h j d t t > : # # t 0 # 0 t t t u u u c  .v @ l L.AX",
"* * 4 4 * 4 b 4 B Z B B ( ( B ] ! o.^ d @ N ^ . @ e d $ @ = e @ q q q q t s g j s t t y r r r t 0 0 0 w i t t u . w w q / P.gXgX",
"1 4 4 * 4 4 4 n - B B ! N f e k *.#.7.^ V w e w e e e @ @ $ q @ q # $ # $ q i h $ # # t t t t s v c i q t t h v  .&.N.N.J.pXAXpX",
"1 n 5 5 ) ) ( ! Z ! ! ( ! B ( *.$.&.$.v e e e $ q q q @ q @ q q q $ r t t q r q # 0 # s t t t i 0 w j v h d l N . N 0.0.e.}.BXBX",
"2 W ) >.V.V.p.i.y.0.0.y.0.$.{ ^ &.$.&.0.v w w @ q @ @ q q q @ q # $ t s d s t t r q q t i t r t x j v d - N 4.M.J.P.A.4.:.~.cX9X",
"E 8.k.^.&X|.S.M.M.y.y.0.#.#.0.$.o.*.o.v d # $ q # q q q @ @ q q $ # t t i d t t t q r r i i i i s ~ $ [ p.k.3.Q.pXAXiX=X=XaX5X`.",
"r.G.|.$XA.{ { 0.y.O.o.o.^ ^ ^ o.v v v h q # q t $ q q e q q e q s g g s h s t r r t r t 0 r u h k @.J.$X1X@X#X8XaXNXcXvXaX5X'.].",
"#XpX1XpXP.7.O.@.$.v h N K l l j v j h w t q q q q q q t d w d d j j j g s r t r i i i i 0 r u v M.U.*X*X2X-X,XcXCXaXCXCXtX>X].].",
"XXpXP.|.0.l l K i i i v ~ ~ K I I v j h i t r q q t q d q d q q t d g t # q 0 t 0 t i u u 0 u j N a.*XBXqX,XeXeXCXCXbXwXeX>X{.].",
"#X#Xu.|.D.&.~ I I o.J t a s t t a i r r s i t t i t t q q w q 0 : > t : # # r s r t u r u i u i K a.p.Q.lXVXtXZXMXVXnX9XeXeXeX>X",
"3XdX3XhXU.~ g I Y.Y.m.H u i r s t r : : t t t r d i q t d q q 0 t s > : # r q t t 0 w u c u w 0 d #.|.#X-X(.5XnXMXbXzXzXnXwXwXeX",
"G.Q.V.p.#.~ K J X.%. .0 r r # t r y r y y y q r t i q q q e q q t > t t t t r t i i c i i u u t # / D.}.8X(.:XwXbXwX9XlXtXdXtXnX",
"^.&XL.Y T #.%.r u z u 0 G a # r r r r r r t t t t q q q i w q q y > t t i h i s i h a c u w a D < > u.1X8XeXzXwXwXeXqX:X=X7XlXcX",
"sXSXP.k l s # L u c u 0 u i t r : y u a s s t t # s i r w w u u # y t 0 0 w h w # a s : p x u w B w.=XcXcX5X,XeXOX5X:X(._.OX<XxX",
"+XsXJ.F v K r u u u c u u p s r y p a x D j a s s g t # 0 0 0 p a y a i h h w w t s y : i p c o.F.1XxXdXiXvXvXwXeXOXR.Z.Z.g.k.~.",
"3XhXU.F $ s x v p c x x a i i r a s p g g s 0 i q r u u c c p D p y r p v c w w y y : : y p L %.U.3XfXgXfX1X@X<XaXNXpXE.r.8.j.^.",
"%XkX%Xa.~ I I L x x x u a s t r i t t t i t u u u 0 u p u r r : y D y u w h c c : : D D p y H +.a.p.I.%X+Xq.5.Q.BXNXuX XK.A.Q.oX",
"F } -.} v i u 0 x c u a i t t h h h d i c w u u x u c z p y D D D D G p u u c u : y D y y p z p D U O.+.@.g f q.uXoXoXuXoXi.*.4.",
"F > < D a x J x x u r r i i s j d f d d w u c c z u z G y s D : : D G p u c c 0 p D D D y D z r p D y r y > t Q S.N.N.M.i.i.V.S.",
"I g s D x a u 0 c u u r i s s g t e w i c c c z z z G a : s Q g D D p D z p u z D y s s : y G y G D y p a s t g ( Q ^ #.S.|.|.0.",
"p j J a p y u p x p u a a t t s t d i i c z z z z z J j K a.+X+X-.I a H G u p P s # s D g g j j p D H a s j J g w e V ^ N.I.L.M.",
"x a p x p c x y p c a a j a s t g t y G p c H H H v I h y.jXBXyX*X} D D J x L N.U.N./ l e h h + $ t d k $ + Q F q e % % T { #.a.",
"v p x G x c x x p z x x J a s s D P D D D | | z L j o.] 7.1XAXpXrXD.-.K D J J ~ =.yXyXL.V.*.Y y.i.$.N = < / { g e $ F F X g q.q.",
"L x H H x x H G H L L L L J J G r p D H H H H H O.v { J.oXpXNXpXgXhX%X#.s J F : @.&XBXgXuXoXP.&XyXXXK.i.i.U.+XI.L.M./ < T T T { ",
"| L L L G H P L x H x H J H G a P G H P P L v +.k / T J.BXNX<X.X-XK.i.#.~ : F J.I.$XpXgXNXiXgXdXpX7XuX X|.$X%X3XyX*X+XP.b.< X T ",
"X. . .| H L  .| x H H H L L x x x | I x I O.F F } P.D.G.rXfX#Xb.~.e., T F s -.%XP.1XiXaXaXpXuXiXNXaXpX1X+X+XK.P.%X&XJ.oXjXP.T <.",
"+.......|  ... .| | | | | | | | |  .+. .I ~ O.D.*X*XP.h.k.$X3X#X).1XF.{ < K -.{ 7.V..XaXaXaXNX7X=X<X=XZ.j.u.4.[ 7.$.P.pXrXkX+Xu.",
".. .X.%.+...X. .| | | | | | | H | c | v K F $.uXhXkXrX*X+XQ.D.l.~.<X3XU.a.} =.-.4.Z d.`..X7X<XE.E.=X#X^.k.<.( Y O *.L.&X$XK.t.` ",
" ...+.%.%.+.+. ...| | | | | |  .I o.M.I.%XU.V.|.b.u.p.b.D.h.1.C.H.^.*XsX%XU.*XkX/.A.9.3.f.,.A 8.!.1X1X3X}.<.m V B ] *.4.4.Z n Z ",
"H U =.=.m.%.J &.I +.L +.+.+.I $.J.rXrXkX/.b.D.q.( ' R R >.4.` ' 5.l.G.^.K. XgXXXz.H.x.g.w.2.h.+X}.*X+XT.u.<.< , Y N b , - - b b ",
" . .%.%.D +.&.K ~ O.&.o.d ~ N.M.hXrX%X).b.t.b.j.<.R B ( ` ( B ! e.p.F.#X^.x.E.x._.(.H.r.h.G.$X1X#X^.t.` 4 , , T m , l m m m b , ",
"%.m.X.%.+.O.+.} $.@.@.{ p.%XjX*XrXhXrX[.P./.}.j.6.4.5.6.4.( ) 4.e.e.8.k.C.w.Z.!.4X2X~.s.8.t.f.u.H.D.e.` M T Y ] _ N m N 4 T Y 5 ",
"m.m.X...%...a.Y.yX%XU.G.sXfX+Xh.b.).P.K./.$X&XH.i.e.j.V.9.6.i.u.u.u.8.w.g.C.OXaX<X2X#XK.z.h.h.D.l.k.u.e.` ' 4.i.7.' R R R ` >.` ",
"X.%.=.%.+.-.yXjX+X+X*X[.8X).c.s.s.t.t.h.l.B.F.h.9.8.9.e.r.V.C.9.u.F.l.l.Z.Z.E.(.BXNXiX@X/.F.l.B.w.h.k.D.u.e.e.u.q.<.[ 2.2.3.3.2.",
"%.U %.+.#.-.*XSX-X+XqXrX[.b.c.v.3.2.2.w.5.1.>.` 4.5.8.1.8.V.g.5.e.u.t.u.g.w.9.l..X8XpX$X~.H.D.l.k.k.h.k.p.K.}.$X).Q.K.P.K.H.G.H.",
"=.-.~ } y.q.D.sXSXrXtXmXrXrXW.v.w.3.2.R R E ' ) 9.V.g.8.>.1.1.5.2.2.2.:.5.3.w.x.x. X=X XK.l.u.h.u.u.l./.Q.$X$X}.&X$X}.).~.T.R.R.",
"%.-.D.%X/.*Xb.u.qXVXmXMXtXtXW.b.l.1.1.e.e.2.<.e.A.!.V.8.,.) A A W W ` R A ,.3.9.r.9.w.s.u.2.:.2.t.u.l.G.h.k.B.k.^.~.[.qX#X[.~.R.",
"3XsXrX$X#X2X-X(.-XmXVXZXVXtXrXb.u.s.q.s.K./.K.K.Q.A.t.:.W C 8 6 6 6 6 6 6 R W W ) :.1.1.5.2.W 6 ;.9.z.G.Q.G.G.!.b.k.H.(.R.Z.R.:X",
"mXmXfXnXmXCXzXeXrXmXVXzXrXxXrXrXF.b.s.s.G./.G.b.j.t.2.W W A 8 6 6 6 3 3 3 6 C C A A A A E ;.` ,.w.H. X=X XT.C.k.z.k.s.3.s.x.R.R.",
"rXtXnXMXVXMXtXwX,X6XMXxXrXrX~.~.~.b.8.t.s.s.w.` 1.:.W R R C 8 6 3 3 9 1 2 2 3 6 5 5 1 1 5 A W 2.,.3.f.l.f.g.g.9.5.w.2.;.,.d.c.c.",
"tXtXMXnXMXVXzX>X6XrXtX6X[.).b.H.R.l.s.q.2.:.` W E Z C R W C C 6 3 3 7 7 2 1 1 1 2 2 1 2 7 5 8 ,.1.;.;.;.E d.C.9.` W W W ;.A W ;.",
"tXtXrX,XeXtX>X`.MXMXtXtX[.b.R.R.~.b.b.b.w.3.5.1.:.;.) Z R R R C 3 8 3 7 1 1 9 * * 1 1 7 6 6 W ;.W 8 ;.8 A 3.d.1.g.:.n A 8 8 9 7 ",
"MXtXtXtXeXeXwXzXMXZXnXMXrXW.W.b.R.R.[.[.R.C.d.8.<.>.) ) R R R 6 6 3 3 7 2 1 1 * 1 4 4 7 6 6 8 ,.3.c.x.d.1.8.r.8.g.8.:.A A 5 7 9 ",
"tXrXtXtXwXwXMXDXVXZXMXtXrX,X[.W._.qX6XqX.XZ.d.1.>.:.) R M M M M 3 3 3 5 5 2 1 1 6 6 3 R W ;.:.w.(.=X:Xz.3.;.;.) Z Z Z 5 9 o o o ",
"xXmXmXtXbXVXVXMXZXMXZXMXtXtX,XrX-XtXrX(.l.1.:.1.) ) Z C M 6 4 3 3 3 5 5 5 5 n n 6 C R ,.w.w.s.Z._.:X_.z.9.:.Z A E n 9 9 9 o o o "
};
