/* XPM */
static char *CW1683236889[] = {
/* columns rows colors chars-per-pixel */
"64 64 228 2 ",
"   c #392A39",
".  c #3B313F",
"X  c #2F2639",
"o  c #412D3A",
"O  c #44313B",
"+  c #59313C",
"@  c #552C38",
"#  c #65353B",
"$  c #723135",
"%  c #3C2E41",
"&  c #3D3244",
"*  c #3F3848",
"=  c #423344",
"-  c #43354B",
";  c #443A4C",
":  c #4B3A4C",
">  c #493844",
",  c #583948",
"<  c #453C52",
"1  c #4B3E53",
"2  c #533F52",
"3  c #693B46",
"4  c #753A45",
"5  c #7E3F50",
"6  c #5A444C",
"7  c #4C4154",
"8  c #484459",
"9  c #574556",
"0  c #6A424D",
"q  c #77464C",
"w  c #684956",
"e  c #774A56",
"r  c #78535B",
"t  c #64585C",
"y  c #585263",
"u  c #584C60",
"i  c #655665",
"p  c #775A64",
"a  c #785F72",
"s  c #756A72",
"d  c #813F4D",
"f  c #884A55",
"g  c #87565B",
"h  c #9B545A",
"j  c #924D53",
"k  c #A55A5E",
"l  c #A75959",
"z  c #B2635E",
"x  c #8B5462",
"c  c #965963",
"v  c #864F62",
"b  c #A75C67",
"n  c #B35D66",
"m  c #87626A",
"M  c #986469",
"N  c #976B73",
"B  c #8E6E75",
"V  c #A4636B",
"C  c #AC6C6D",
"Z  c #A96567",
"A  c #B46564",
"S  c #BC6D6B",
"D  c #B76869",
"F  c #B7736D",
"G  c #AD6C72",
"H  c #A66872",
"J  c #B26C74",
"K  c #BC6B74",
"L  c #B76875",
"P  c #A8747A",
"I  c #B47273",
"U  c #BA7677",
"Y  c #AE726A",
"T  c #C46D6C",
"R  c #C86B69",
"E  c #D26D6D",
"W  c #CD726D",
"Q  c #C5706D",
"!  c #D1726E",
"~  c #C66E75",
"^  c #C37374",
"/  c #CC7473",
"(  c #C87779",
")  c #D37573",
"_  c #D57974",
"`  c #D47A7A",
"'  c #DC7C7B",
"]  c #D97877",
"[  c #D76E72",
"{  c #E17D7D",
"}  c #C9837E",
"|  c #DC817D",
" . c #D1827D",
".. c #E1837E",
"X. c #4C7D8E",
"o. c #4E7F90",
"O. c #507F8F",
"+. c #7C7882",
"@. c #877B88",
"#. c #967A85",
"$. c #BB7783",
"%. c #A37C88",
"&. c #CC7B84",
"*. c #D67C82",
"=. c #E27E81",
"-. c #4F8193",
";. c #4F869A",
":. c #538394",
">. c #598696",
",. c #5C8997",
"<. c #558699",
"1. c #558A9D",
"2. c #5C8B9B",
"3. c #7E8189",
"4. c #638D9B",
"5. c #6A8E9A",
"6. c #6D919C",
"7. c #64909E",
"8. c #73949D",
"9. c #7D989D",
"0. c #568DA1",
"q. c #5B8EA3",
"w. c #5E91A6",
"e. c #608FA1",
"r. c #6493A3",
"t. c #6A95A4",
"y. c #6B99A5",
"u. c #6E9AA9",
"i. c #7296A2",
"p. c #759AA5",
"a. c #7A9BA5",
"s. c #739DAA",
"d. c #7D9EA8",
"f. c #7997A1",
"g. c #76A0AE",
"h. c #7CA2AC",
"j. c #7CA5A6",
"k. c #7CA4B0",
"l. c #79A09F",
"z. c #9A8D96",
"x. c #8C979B",
"c. c #8D9A9C",
"v. c #879698",
"b. c #94959B",
"n. c #939C9D",
"m. c #9B9B9C",
"M. c #989596",
"N. c #8B8A8F",
"B. c #A98C8E",
"V. c #B7898A",
"C. c #AA8992",
"Z. c #A59B9C",
"A. c #A89698",
"S. c #B79A98",
"D. c #AD918E",
"F. c #8EA49C",
"G. c #95A19D",
"H. c #8B9DA3",
"J. c #849EAA",
"K. c #889DA5",
"L. c #939EA2",
"P. c #9C9CA2",
"I. c #949EAC",
"U. c #969FB0",
"Y. c #B09CA3",
"T. c #85A2A5",
"R. c #8BA1A4",
"E. c #82A5AD",
"W. c #8BA5AD",
"Q. c #8EA8AF",
"!. c #82A9A6",
"~. c #94A2A5",
"^. c #9AA3A3",
"/. c #94A5AB",
"(. c #99A6AA",
"). c #95A8AE",
"_. c #9BA9AD",
"`. c #81A7B0",
"'. c #85A9B2",
"]. c #8DAAB2",
"[. c #8DA5B0",
"{. c #93AAB1",
"}. c #9AABB1",
"|. c #93A0B1",
" X c #B6A4A5",
".X c #A3A5AC",
"XX c #A1A09B",
"oX c #C98789",
"OX c #DC8483",
"+X c #D58786",
"@X c #C79897",
"#X c #D69696",
"$X c #CC938C",
"%X c #E38483",
"&X c #E58A83",
"*X c #EB8D8B",
"=X c #E98B88",
"-X c #EC928C",
";X c #E0918C",
":X c #F1958D",
">X c #E69693",
",X c #F29591",
"<X c #F49B94",
"1X c #F79C99",
"2X c #E18F93",
"3X c #EAA79B",
"4X c #FAA29C",
"5X c #EDB19F",
"6X c #F29EA2",
"7X c #C6A5A6",
"8X c #D7A7AA",
"9X c #DCB1B1",
"0X c #E7AAA5",
"qX c #FCAEAA",
"wX c #F7AAA5",
"eX c #EDB5AB",
"rX c #FCB4AC",
"tX c #F6B6A9",
"yX c #EDBAB6",
"uX c #FCBCB4",
"iX c #F8B8B5",
"pX c #F2ADB5",
"aX c #D1A09C",
"sX c #FDC3B4",
"dX c #FEC4BB",
"fX c #FDCABD",
"gX c #F5C3B6",
"hX c #FFCEC4",
/* pixels */
"X.X.X.X.X.X.O.-.O.X.-.-.:.-.-.-.-.-.;.-.;.:.;.:.;.o.<.o.-.;.-.-.;.;.;.;.0.;.0.0.;.1.0.;.0.1.;.0.1.;.1.1.0.;.0.0.0.0.0.0.0.;.0.;.",
"X.X.X.X.X.X.X.:.X.:.-.-.O.-.-.:.;.-.-.;.;.:.-.<.:.;.;.<.<.:.<.;.<.;.;.;.;.0.0.;.0.0.;.0.;.0.<.0.1.1.1.1.0.;.0.;.;.0.0.0.0.0.0.0.",
"X.X.X.X.X.X.O.:.:.-.-.-.-.-.-.-.-.<.;.:.:.<.<.<.0.o.<.<.<.<.<.<.<.;.<.0.0.0.0.0.1.<.1.1.0.0.<.0.1.1.1.0.0.0.0.0.0.0.0.0.0.0.0.0.",
"-.X.:.-.O.X.O.O.-.:.-.-.-.:.:.:.:.:.:.<.:.<.<.<.o.<.<.<.<.<.<.:.0.0.0.0.0.<.0.0.0.1.0.0.0.0.0.0.0.0.0.0.0.0.0.0.0.0.0.0.0.0.0.0.",
":.:.:.:.O.O.O.O.O.-.O.-.:.-.-.>.:.:.1.:.:.:.<.<.<.<.<.<.<.<.<.<.1.<.>.1.o.<.0.<.1.2.1.0.1.1.q.0.0.0.0.w.0.q.0.w.0.0.w.0.0.0.w.w.",
":.>.>.:.:.:.O.O.>.O.>.O.>.:.>.-.:.:.:.:.<.<.<.<.<.2.<.>.<.<.<.<.<.1.1.1.0.0.1.0.1.1.0.2.q.0.2.2.0.0.0.0.q.q.w.0.w.0.0.0.0.0.w.0.",
",.2.2.<.-.:.:.:.O.>.O.>.-.O.-.>.:.<.:.1.,.<.<.,.<.>.>.>.<.<.2.<.1.1.1.1.2.1.0.1.0.q.q.1.2.q.0.q.0.w.0.w.w.0.w.w.0.w.w.w.0.w.0.0.",
"2.2.2.,.:.:.:.:.>.O.>.O.>.>.-.>.:.:.>.:.<.<.,.<.q.2.1.1.2.2.2.2.4.q.0.2.0.q.2.q.2.0.2.0.2.q.q.2.w.0.0.w.q.w.0.w.0.w.w.w.w.w.0.w.",
"e.O.>.e.4.O.e.O.:.>.:.>.O.>.>.>.:.>.,.,.,.<.<.,.<.,.<.,.2.,.2.2.1.2.q.2.q.2.e.4.q.w.2.r.q.e.q.q.0.w.w.w.0.w.w.0.w.w.w.w.w.w.w.w.",
">.4.>.O.O.4.O.O.-.>.>.>.>.>.>.>.<.<.,.<.<.,.1.,.,.<.,.2.>.2.2.2.2.2.0.2.2.q.2.q.e.2.w.2.e.q.e.e.w.0.w.w.w.w.w.w.w.w.w.w.u.w.w.w.",
"O.4.O.4.4.O.O.4.>.O.>.>.>.>.>.>.<.,.,.,.,.,.,.,.<.,.>.1.2.2.2.2.q.2.2.e.2.e.e.e.r.2.w.4.r.w.w.w.y.w.w.w.y.w.w.y.w.w.w.w.w.w.w.u.",
">.O.e.O.O.4.4.O.>.>.>.>.>.>.>.>.,.,.2.2.1.2.1.,.2.2.2.2.2.2.2.2.>.4.q.2.2.e.e.e.q.w.r.r.w.r.r.r.y.r.y.w.y.w.w.y.w.u.u.w.u.w.u.w.",
">.O.4.O.O.4.O.4.>.>.,.>.>.,.,.,.,.2.2.2.2.2.2.2.2.2.2.2.2.4.q.q.e.e.4.e.e.r.e.e.r.r.r.r.r.r.r.r.w.r.r.r.w.y.w.w.y.y.y.y.u.w.u.u.",
"O.4.O.4.5.O.4.O.>.>.4.>.,.,.,.,.2.2.2.2.4.2.4.2.2.2.2.4.2.r.4.4.e.e.4.e.e.r.r.r.r.r.r.r.r.r.r.y.r.r.y.y.y.w.y.y.y.w.y.w.w.u.u.w.",
">.<.e.O.O.5.4.O.4.O.,.4.4.,.,.,.2.2.2.2.2.4.2.2.2.2.2.7.4.2.e.4.r.e.r.r.r.t.e.r.t.r.r.u.u.r.y.r.y.0.y.r.y.y.y.y.y.y.y.y.y.y.y.y.",
"e.q.+.e.4.O.4.4.>.5.>.4.,.,.5.,.2.2.2.4.e.2.4.4.2.4.2.4.2.r.4.4.r.r.t.r.t.t.t.t.t.t.u.r.r.u.y.y.y.y.y.y.y.y.y.y.u.w.y.y.y.y.y.y.",
"O.4.>.>.4.2.2.>.,.,.,.2.2.2.2.4.2.2.2.2.e.4.4.e.e.4.e.4.e.e.4.r.6.r.r.r.t.t.t.t.t.r.t.t.t.t.y.u.y.y.y.y.u.u.s.u.u.u.u.y.u.y.u.u.",
">.>.>.,.2.>.2.4.,.,.,.,.2.4.,.4.2.e.e.2.2.e.e.e.4.e.e.e.r.e.e.r.r.r.r.t.r.t.t.t.u.t.u.u.u.u.u.u.l.y.y.g.s.u.s.s.u.u.g.u.g.g.u.g.",
"4.4.>.>.4.,.2.4.,.5.,.,.4.4.4.,.7.4.2.e.7.0.7.7.e.e.e.r.r.r.r.r.r.t.t.t.t.u.t.u.u.u.u.u.u.u.u.s.u.u.g.y.u.s.s.s.g.u.g.u.u.g.g.u.",
"4.,.4.4.,.4.,.4.,.4.4.4.4.4.4.4.4.e.e.7.7.7.7.7.t.r.r.t.r.t.t.t.t.t.y.t.t.u.u.t.u.u.u.g.u.u.s.u.g.s.s.j.s.g.s.s.g.g.s.g.g.u.g.g.",
",.5.,.4.4.4.4.4.4.4.4.4.4.4.4.4.7.4.7.7.7.7.7.7.r.r.t.e.r.t.t.t.i.u.t.i.u.u.s.s.u.s.s.s.s.s.s.g.g.g.g.g.g.g.g.g.g.g.g.g.g.g.g.g.",
"4.,.4.4.4.4.4.5.4.4.4.4.7.6.7.7.r.r.r.r.r.r.y.y.t.t.t.t.t.t.u.t.u.t.u.s.s.u.s.s.s.s.s.s.s.s.s.a.g.g.g.g.g.g.g.k.g.g.g.k.g.g.g.g.",
"5.,.,.5.4.5.4.4.5.4.4.4.4.5.7.7.6.r.r.6.t.7.7.y.t.t.t.t.u.t.i.u.i.u.i.p.s.s.s.d.d.s.s.s.g.h.g.g.j.g.k.g.k.k.g.g.k.k.k.g.k.k.k.k.",
"5.5.5.4.5.4.4.5.5.4.5.5.4.6.6.7.5.r.6.r.6.r.6.y.t.u.i.u.u.i.u.p.s.p.p.s.a.d.s.s.s.h.s.d.g.h.h.k.g.g.k.k.k.k.k.k.k.k.k.k.k.k.k.k.",
",.5.5.5.5.5.5.5.5.5.5.6.7.6.6.t.t.t.6.t.6.i.t.t.i.t.p.i.p.u.p.u.s.p.s.j.s.j.s.j.a.g.h.h.h.h.h.h.k.!.k.k.k.k.k.k.k.k.k.k.k.k.k.k.",
"5.5.3.,.5.5.5.5.5.5.6.6.6.6.8.6.i.6.t.i.t.i.i.i.i.i.p.u.p.p.p.p.p.s.a.s.a.g.g.a.h.h.h.g.h.h.h.k.k.k.k.k.k.k.k.'.k.k.'.k.'.k.k.'.",
"5.5.5.5.5.8.8.5.8.5.6.6.8.8.8.8.5.i.8.i.i.i.i.i.i.i.p.p.p.p.p.p.s.s.a.s.a.a.h.h.h.j.h.h.h.h.h.E.k.k.k.k.'.'.'.'.k.k.'.k.k.!.'.k.",
"6.5.6.5.5.8.6.6.8.8.8.i.8.i.8.8.i.8.i.i.i.i.p.p.p.p.p.p.p.p.s.d.j.a.j.a.g.d.j.h.h.h.h.h.h.h.E.j.'.!.'.k.'.k.'.'.k.'.k.'.'.'.k.'.",
"6.8.6.6.8.6.8.8.8.8.f.i.8.8.8.8.f.f.f.f.p.p.f.a.p.a.a.a.d.d.d.s.j.a.a.d.h.h.h.h.j.k.E.j.j.'.'.k.k.!.'.k.'.'.'.'.'.'.'.'.'.'.'.'.",
"8.8.6.8.8.8.8.f.f.f.f.f.a.f.p.f.f.p.f.p.a.a.a.p.d.a.a.d.d.d.d.d.a.h.h.j.h.E.E.E.'.k.E.E.'.k.'.'.'.'.'.'.'.'.'.'.'.'.'.'.'.'.'.'.",
"3.8.8.9.9.i.f.f.a.f.a.f.f.f.a.9.p.a.p.a.p.J.p.a.a.a.d.a.d.d.J.d.h.h.h.E.E.h.E.E.'.j.'.!.'.k.k.'.'.'.'.'.'.'.'.'.'.'.'.'.'.'.'.'.",
"9.9.9.9.v.v.v.9.v.K.9.f.a.9.a.p.a.f.a.a.a.a.a.J.J.J.J.d.J.d.J.J.J.E.j.E.E.E.E.E.'.!.'.'.'.'.'.'.'.'.'.'.].'.].'.'.'.'.'.'.'.'.'.",
"v.F.c.c.v.M.M.z.N.x.c.v.l.j.j.j.j.f.a.p.d.d.J.a.J.J.J.T.K.H.K.T.T.W.W.E.W.W.`.W.W.W.E.W.[.'.Q.W.].].].].].].].].].].].].].].].].",
"N.v.m.XX X X7X XS.A.M.M.v.9.8.9.j.j.T.J.J.J.J.J.J.J.K.K.T.T.T.K.T.W.W.W.W.[.W.W.W.W.W.'.W.Q.Q.'.].].[.].{.].].{.].].{.].].].{.].",
"A.S.7X7X9X9X9X8X8X@XS. X Xm.b.L.H.K.K.T.W.K.K.[.J.J.K.J.T.T.K.T.T.W.W.W.W.W.W.W.W.W.Q.W.].Q.Q.Q.Q.Q.{.].].Q.].].].{.{.].{.].{.{.",
"8X9XyXyXyXiXiXiXiX0XaX8X7XB.C..XP.n.c.L.H.K.H.W.J.W.J.E.W.T.E.E.W.W.W.T.W.W.[.[.Q.W.Q.Q.Q.].].{.].].{.].{.].{.{.{.{.].{.].{.].{.",
"gXgXhXdXfXfXhXhXhXuXeX0XaXV.@X7X XZ.z.P.m.~.R.T.W.E.E.E.`.W.W.W.W.W.W.W.W.Q.Q.Q.].Q.].{.{.].{.{.{.).].{.{.{.{.{.{.{.].{.{.{.{.{.",
"gXfXuXuXtXtXsXsXdXsXuXiXeX0X0XyX8X7XY.Z.G.G.R.!.E.k.E.E.k.[.J.|.W./.W.W.Q.Q./.Q./.]./.].{.{.{.{.{.].{.{.{.].{.{.{.{.{.{.{.{.{.{.",
"uXsXuX0X5X5X5X5X5X5XtXeXtXiXpXeXpXpX8XY.Z.G.G.!.!.!.j.'.W.|.|.I./.W./.Q./.Q.Q././.[./.Q./.{.).).).).).{.{.{.{.{.{.{.}.{.}.{.{.{.",
"5XtXrX5X5X5X5XsXsXsXtX#X>XqXuXqXpXpXpXaXD.Z.G.F.!.!.!.!.W./.U.U.I././.W./.Q.{././.Q./.Q./.).).{.).{.{./.{.}.}.{.{.}.}.}.{.{.}.{.",
"qXrXuXrXtXuXsXsXsXsXtX3X&X .OXwX6XiXiX0X@XS.Z.m.L.L.L.R./.I.^.I./.{.{././././././././.)./././.{._.).).{.).).).).}.}.}.{.).).).}.",
"uXsXdXuXuXuXfXsXfXdXuXqX>X/ T  .&.2X$XoX@X@X@XS.A.Z.Z.m.P.L.I./.H././././.).{.)././.{.).).).}.}.).).).).)././.}.{.{.}.{.).).}.}.",
"dXdXdXdXgXfXfXfXgXsXgXuXwX .S ^ U U I F +X#X$XoX$.V.C.Y.Z.m.n.(.~./.L./.)./././.~.).(./.R./.(.~.(.).(.).(./.(._.}.{.}._._.)._.}.",
"fXfXfXgXgXgXgXfXfXfXgXtX0X#XU F G I Y Y ( +XOX*.&.oX@X@XA.z.M.G.~.~.~./.(.~.~./.~.(./.H.H.~.~.H.(.(././.(.(.).(.}.}._.).(._._.).",
"hXfXhXgXgXgX9XgXyXfXiX0X0X3X$X} F } F Q ` *.%X*X;X2X#XaXS.B.B.m.L.n.G.~./.~.~.L.~./.(.G.L./.(.~._./.~.~.(._._.(._._.(.(.(._._.(.",
"gXeXiXgXgXgXeX5XeXuXtXeXtXrX3X;X} +X ._ ` / ) %X-X>X>X>X#X$XV.C.P.~.~.R.~.~.L.H.~.(.(.~.~.~.~.~._./.~.G.~.(._.~._._._.(.(._._.(.",
"3X3X4XrXrXrXtXuXuXuXrXqXwX1X:X*X...._ E W T T / |  . .+X+XoX~ $.M.R.c.v.c.~.~.x.~.L.~.(.~.c.c.c./.(.~.~.~.~.(.(.(._.(.~.(._._.~.",
"4X1X4XwXwXqXwXrXqXqX1X1X1X:X=X,X{ ) R z T S D F U Y F ( &.( L L B 3.N.+.N.~.^.c.b.v.x./.~.~.H.(.G..X_.~.n.n.(._.~.(.(.L.~.(.(.n.",
"<X<X:X:X<X4X5X4X<X<X<X<X<X:X:X..{ *X%XR n S F z Y I I G V L J P B s y p z.P.z.b.L.b.b.L.(.^.L.L.G.G.G..XP.n.L.(.}.}.).L.c.L..X.X",
",X:X:X<X<X4X4X4X<X..:X....<X:X:X&X| ` S D A Z Z G G Y P $.$.$.P r p r p #.z.z.P.P.b.L.b.L.b.c.L.v.M.G.G.n.b.L.^.L.I.(..X_.P.b.b.",
":X:X:X<X5X4X4X<X<X5X<X:X-X:X:X:X-X| / W T A Z Y U I G C n b b j h M c N N #.C.A.z.z.b.m.L.b.H.L.F.F.F.G.n.c.L.I._.G.c.G.M.x.A. X",
"....:X:X..<X............{ ....=X-X ./ Q S A Z A Z k b b b b b h U F $.P P %.%.#.@.@.N.b.b.L.b.b.F.F.G.G.n.b.L.I.^.m.m.G.XXA.A.S.",
"........:X....| ! | _ [ ! ] { .. .! Q Q z l l l h h k n D L L &.^ T L J H H #.m x s s @.v.x.K.x.F.G.L.P.m.Z.A.A.A.XXA.S.S.@X@X$X",
":X......| | W  .! [ ! E E E { { W W Q z l l l h l l Z L L n n &.~ S n b H H c e p p i s +.+.b.I.n.b.P.P.A.A.Y.Y.D.D.V.oX#X3X5X5X",
":X:X....| W W W ! ! E E R E E E ! W R R z l l l h h l A b b n n n L b h H H f e w t i i +.+.+.+.3.+.@.@.#.%.C.C.M N V.#X6XwX4X<X",
"<X<X:X..| W W W ! _ ] [ [ { { { | ! R R R z l l l h k V b c f j k n h j c x e w 2 w y y y y y u y y y y a #.%.%.N M H U oX+X&X>X",
"<X<X:X-X| ) ! ! _ ..=X..] ) ] =.=.=.{ ) R D b l h h M Z g 4 # 4 d f x x r 0 2 2 2 2 u 9 8 8 < 8 8 8 8 u i a m B N g g M F } } } ",
">X-X-X&X] ! E E ! { ..| ] ) ] ] *.=.=.*.( T L b h f q q 0 3 3 0 w e r t w 6 2 9 1 9 8 8 < < < < 8 8 8 1 2 u w r g r f g Y F D F ",
"-X*X..| _ _ ) ) { ' ' | ' ) / [ [ ) *.` ~ K J H M g q 6 + , 6 6 6 9 6 6 9 1 2 9 1 8 8 1 < - - - < < - , , 3 3 4 3 3 4 q h c Z C ",
"&X&X| | ..| { *...] ] ] ` / T T ~ ~ ~ ( ^ J M c N M r w O + , : > > ; ; ; 1 7 8 1 < < ; - % - 1 2 3 5 v v v v v g f 4 4 f c b C ",
"OX| | | %X&X&X%X|  ._ W ~ T T S F K I I J H x g r r w >     = > . . & * - 7 7 < ; * - = o o > 0 5 v b $.$.&.L L $.H d 4 d f c b ",
"| |  .| %X&X&X%X]  .W W T ^ S D Y Z V M M x e 0 , , , O = = . X & & & * ; ; 7 * 7 O . .   O : 0 c V $.&.*.&.&.$.&.L f $ 4 5 d f ",
"|  .| | | | | ' _ _ Q z z S z j g f q e q 3 3 , @ , , 9 1 - % X & & = = - - * ; 7 O O O O , t m b A n ~ ^ ^ ^ U G H f 3 @ , 3 5 ",
"| | &X| | ] ) ) / / R l z z j $ $ # # 3 # + + , , 9 9 2 & X X % . . * > . * > 7 > O   O O 0 p N G D n L T S ^ U C P c 5 , @ @ , "
};
