/* XPM */
static char *E1683235620[] = {
/* columns rows colors chars-per-pixel */
"64 64 196 2 ",
"   c #2C2D2D",
".  c #302F2F",
"X  c #30312F",
"o  c #2E3031",
"O  c #323232",
"+  c #373738",
"@  c #3B3B3B",
"#  c #3F3F40",
"$  c #444445",
"%  c #474849",
"&  c #4B4B4B",
"*  c #504F4F",
"=  c #4E4F51",
"-  c #4F5151",
";  c #545454",
":  c #585757",
">  c #555759",
",  c #57595A",
"<  c #5C5C5C",
"1  c #5E605F",
"2  c #60605F",
"3  c #5E5F60",
"4  c #5F6061",
"5  c #636363",
"6  c #6C6566",
"7  c #686869",
"8  c #6B6C6C",
"9  c #716466",
"0  c #726769",
"q  c #746B6D",
"w  c #796D6E",
"e  c #6C6E71",
"r  c #796F70",
"t  c #6F7071",
"y  c #747474",
"u  c #7D7274",
"i  c #757779",
"p  c #7C7778",
"a  c #76787A",
"s  c #7C7C7C",
"d  c #89715F",
"f  c #817677",
"g  c #827779",
"h  c #847B7C",
"j  c #887D7E",
"k  c #83817F",
"l  c #978470",
"z  c #7E7F80",
"x  c #867E81",
"c  c #897F80",
"v  c #7F8182",
"b  c #838484",
"n  c #878787",
"m  c #8B8384",
"M  c #8C8788",
"N  c #878889",
"B  c #8B8B8B",
"V  c #918687",
"C  c #908789",
"Z  c #938C8D",
"A  c #90908F",
"S  c #8E8F90",
"D  c #948F90",
"F  c #998F91",
"G  c #8F9091",
"H  c #949394",
"J  c #9B9394",
"K  c #999897",
"L  c #979798",
"P  c #9C9798",
"I  c #97999A",
"U  c #9B9B9B",
"Y  c #A89787",
"T  c #BD9F83",
"R  c #A49A93",
"E  c #A99E94",
"W  c #A29C9C",
"Q  c #9FA09F",
"!  c #BDA286",
"~  c #A3A09E",
"^  c #ACA39C",
"/  c #B7A69B",
"(  c #BBA49B",
")  c #9E9FA0",
"_  c #A29EA0",
"`  c #9FA0A0",
"'  c #A3A3A3",
"]  c #AAA4A4",
"[  c #A9A8A7",
"{  c #A5A6A8",
"}  c #A7A8AA",
"|  c #ABABAC",
" . c #B3AAA3",
".. c #BEABA4",
"X. c #B2ADAD",
"o. c #B8ADAB",
"O. c #BBB1A4",
"+. c #B2B0AE",
"@. c #BCB2AB",
"#. c #AEAFB0",
"$. c #B3AFB0",
"%. c #AFB0B0",
"&. c #B4B3B4",
"*. c #BAB5B5",
"=. c #BAB7B7",
"-. c #B7B8B8",
";. c #BCBCBC",
":. c #C2A385",
">. c #C3A588",
",. c #C5A98C",
"<. c #CAAB8D",
"1. c #C6AB91",
"2. c #CBAF93",
"3. c #C0A89C",
"4. c #CDB296",
"5. c #C2B09C",
"6. c #CEB59B",
"7. c #D1B599",
"8. c #D3B699",
"9. c #C3ADA3",
"0. c #C6B2A5",
"q. c #C9B5A3",
"w. c #C4B3AB",
"e. c #CAB5AC",
"r. c #C9B8A8",
"t. c #CEBAAC",
"y. c #D4BBA4",
"u. c #D8BFA4",
"i. c #D2BEA9",
"p. c #C5B7B3",
"a. c #C3BBB3",
"s. c #CDBCB4",
"d. c #C1BEBD",
"f. c #CCBEB8",
"g. c #D1BCB4",
"h. c #D4C0AD",
"j. c #DAC2AA",
"k. c #C3C0BD",
"l. c #CAC4BC",
"z. c #D5C3B4",
"x. c #DBC5B1",
"c. c #DCC9B5",
"v. c #D4C3BC",
"b. c #D6C8BE",
"n. c #DCCBBC",
"m. c #E0C7B0",
"M. c #E1CBB5",
"N. c #E2CEBB",
"B. c #E3D1BD",
"V. c #BFBFC0",
"C. c #C1BFC0",
"Z. c #BFC0C0",
"A. c #C4C3C3",
"S. c #CAC6C4",
"D. c #CCC9C6",
"F. c #C6C7C9",
"G. c #C9C7C8",
"H. c #C6C8CA",
"J. c #CCCBCB",
"K. c #D6C6C1",
"L. c #D3CBC4",
"P. c #DACBC3",
"I. c #D2CECB",
"U. c #DBCFCA",
"Y. c #DDD2C5",
"T. c #D5D1CD",
"R. c #DBD4C9",
"E. c #DCD3CC",
"W. c #CECFD1",
"Q. c #D3CFD0",
"!. c #CFD0D1",
"~. c #D4D3D3",
"^. c #DBD5D2",
"/. c #DDD8D4",
"(. c #D6D7D8",
"). c #D8D7D9",
"_. c #DBDBDB",
"`. c #E3D3C4",
"'. c #E8D7C5",
"]. c #E2D6CA",
"[. c #E5DACE",
"{. c #EADBCD",
"}. c #E1D6D1",
"|. c #E3DBD5",
" X c #E9DED5",
".X c #E3DDDA",
"XX c #E8DFD9",
"oX c #DFE0DF",
"OX c #E6E1DD",
"+X c #E9E2DC",
"@X c #DFE0E1",
"#X c #E3E3E3",
"$X c #E8E6E5",
"%X c #ECE9E4",
"&X c #E7E7E8",
"*X c #EAEAEA",
/* pixels */
"< b C g f ;.T.F.~.H < < n i < 5 n & & ; F.J.J.W.m f h J 5 5 8 J.J.J.~.6.1.6.@.g g Z U s a L e 4 7 n % % 4 U a s U t 1 5 U h f j ",
"7 H W c h A.(.J.@X' 7 8 L b 7 y H > ; < ~.~.~._.J m C ~ 8 7 s ).~.~.XXj.6.y.a.x c F ' s N ] h 7 y H ; * 8 ' k v ~ y 8 t [ V m V ",
"=.;.=.~._.#X*X(.F.;.A.=.&.| d.-.;.=.A.;.J.).J.G.;.J.A.S.F.A.=.A.~.~.I.D.|..X|.~..X_.@X(.&.&.&.A.-.;.-.;.-.;.H._.oX_.J.&.;.A.^.T.",
"2 < * | W.A.~.B & ; k ; @ @ b 2 ; 8 H i 8 H 7 ; : H g w m z ; ; s m q r o.0.( e.~.F.J.G.% @ @ b < : 8 b ; - S ).A.~.&.; : 7 p.3.",
"S B n J.&X).$X=.n n ' b y i ] G N H $.L U =.I n B $._ W o.| M n | X.W J S.K.v.].&X_._._.k i y ' B b H ' b n &.$X/.@XS.n n I E.P.",
"$.A.' H H =.' ' | |.`.'. X+.' ' T.}.U.|.G.X.&.D. XU.].J.G Z ' ;.' ' A.*X@X$X~.) ' | S.$.$.D.|.`.`.%X#X#X*XZ.~ Q C.=.$.=.J.-.&.&.",
"9 V &     i ; & < q.>.:.q.4 & & ] 9./ e.J 9 6 J e.( 9.J o . & y & $ b ~.C.W.| % & 5 Z 9 9 Z 4.! >.b.H.A.~.v % & z g 0 w L t 8 y ",
"d.G.X.} | F.=.&.-./.].].|.-.+.%.Q.}.U.}.J.d.;.I.XX^.].I.' { &.A.&.X.G.*X#X&X(.$.&.V.I.C.;.I.[.].[.$X#X#X*XH.+.+.G.G.;.C.I.;.C.Z.",
"z s i A.#X~.#X| y y I W B J X.s y b H y y U c.y.u.*.y y B P.u.u.`.P.f.z.&.t i M oX_.)._.b i i | Z M L z.6.y.].@X~.oX=.3 3 i L i ",
"8 7 < =.).J.(.L 1 1 n Z p j _ 7 3 i N 5 5 H j.4.8.@.5 5 y i.4.,.i.e...s.@.7 5 t ~.J.W.J.8 5 7 ~ m j Z x.6.2.n.(.J._.| $ % < b < ",
"| ;.;.A.J.).~.S.;.~._._.(.k.A.=.F.A.A.A.-.&.a.D.I.A.=.A.A.J.I.+X$X#X.XC.;.| A.d.I.^.+XOXL.J.&.;.&.A.;.S.D.R.T.I./.W.A.#.A.L.T.I.",
"@ 8 y : : H g u k ~.J.J.~.7 , < H s y n y @ @ t y : < H h u b J.G.J.J.= @ $ B h r k i.>.<.r.& @ $ n 2 > 8 H w q J 7 > < o.e.9.0.",
"8 H U z x #.P J ^ #X_._.#XH b n &.U L | U 8 8 H H s b | J J ] #X_._._.x e y | W J ' P.i.x.P.v 8 q ' b b H *.J W ;.H n n D.n.v.P.",
"+.| ] T.].U.}.F.{ | ;.&.[ | G.;.=.d.d.| | C..XE.R.$X#X#X*XA.| ] ;.C.&.;.F.| | &.}.E.E./.%.| | ).&X_.&XJ.=.-.F.' I U ;.| ] &.;.} ",
"; - % ~ 9.( e.m % & a 5 & & B w 9 g i & % h e.( ( L.G.k.~.b % & s s 7 y n * & 4 e.( ( w.< & & +.J.Z.~.H 5 8 n $ . O s ; & 5 y % ",
"&.| | ~.|.^.|.F.| | k.-.| | G.d.=.A.d.| | A..X}.^.#X#X#X*XA.| | A.A.=.;.F.| | &..X^.}..X&.| | _.&X#X*XJ.-.;.J.[ U U ;.%.| -.;.| ",
"s ' H s a k._.(.*X#.s k | ].z.b.l.z b H &.J D $.H s v ~ v v G R.v.v.R.G z M | n z B oX(._.#XP.z.b.a.i h H &.J W =.] J W I.K.v.P.",
": k i : < &.(.F.).H : ; n e...e.X.< : 7 D u r J 8 ; 1 A 2 : 8 s.0.9.f.7 : 3 n < < 8 ~.J.J.).p...t.X.< , 8 J r y P x u g w.e.0.e.",
"=.Z.;.A.=.I.).).~.A.;.J.(.&X_.L.J.;.J.J.~.~.~._.~.F.;.S.k.Z.;.J.~.I.I.A.J.G.~.J.A.;./.).).).T./.T.J.;.J.!._.(.I.^.~.J.;.I.I.I.C.",
"7 3 1 U j f n n : < B (.S.!.;.: < 8 s.0.9.b.(.H.(.k.p u Z B < , N m u g =.t.9.g.~ u u F n a s ' p f M (.T.J.).e.9.e.X.< < y e @ ",
"b s s &.W H ] ] s i ] &X(._.J.s s N L.z.g.^.#X(.oXJ.J F | ' s a ' ] D Z d.z.s.U.&.Z J X.' H K -.J J U ).(.(.&XK.z.v.=.a i H B 7 ",
"-.H.| ' _ ;.%.| =.-.` ' ;.S.;.;.J.;.;.A.A.| | A.=.| #.V.' ~ | ;.| | A.&X_.&X_.;.d.A.k.| | Z.-.| | ~.}.E.|.A.| | F.|.Y.`.I.| | X.",
"8 M &   O a ; & 5 7     7 k 0 q U t 8 s i & & i 5 & * a O X & a & % b ~.V.J.&.9 0 j s & & a 1 - &  .9.( e.s & % b 4.! <.E & ; ; ",
"&.A.' L I ;.[ } &.=.H H &.d.&.=.I.;.&.A.;.] ' ;.&.' | ;.U H ' ;.[ ' A.*XOX$X).&.=.A.;.' ' ;.+.' [ T.E.E.|.Z.[ ' A.[.Y.].I.' [ | ",
"' W ] ;.S B K | n n +.'.x.c.D.B n I [ n n | +.W ' ;.B n Q ;.Q U *.U M v k.x.j.`.X.n B | X.~ U ).&X(.#X} b n %.X.W W | y y n E.P.",
"p u u H < > 8 n , ; b y.,.4./ , > 8 c ; ; v m q f J < ; 7 H 8 y H 8 : > ^ 7.,.8.B - ; k m w q ;.J.A.(.M ; ; b m q p n + + = e.9.",
"I.I.;.A.=.;.-.V.-.;.A.Y.R.E.T.;.A.;.A.-.A.F.F.F.S.J.;.G.!.).T.H.F.;.V.;.J.Y./.[.D.;.;.k.k.S.D.OXOX#X&X~.F.A.I.L.J.I.~.;.;.-.^.^.",
"e.s.< $ & b = % < n 4 < B Z f m U 7 5 y U h a ' Z h g A.).J._.B < 5 B s < 5 ~ l l Y A 1 1 B j.,.2.b.w.w.z.c.2.4.c.s.0.g.=.g h h ",
"s.K.t < 5 H 5 < y U i y I W Z Z | y i M ] G B } U Z Z J.#X~.#XQ y y L N t s X.l Y / ~ a y ~ c.y.j.].v.e.l.c.6.y.`.v.s.b.S.Z H J ",
"A.A.;.F.&.&.=.A.&.&.A.R.].Y.OX@X#X#XF.%.&.A.[.Y.].~.&.=.V.T.b.l.I.}.~.E.OX@X#X*XV.| [ -.&.&.=.J.&.&.;.&X#X#X#X=.&.;.S.| [ &.A.+.",
"y 8 y H ; ; 5 s & & v 7.:.:.b.J.d.(.b & & k 6.:.<.^ ; & 5 Y d d Y e.( ( T.H.A.~.8   X 7 7 & ; b ; = 1 J.F.A.J.< & ; a X O & y & ",
"&.| %.A.U U ' -.U I ;.{.B.B.%X*X@X*XA.U I &.`.n.'.L.U I } l.O.O.L.+XR.L.OX@XOX*X&.B B | | U ` Z.` U ' #X#X#X&X} U [ ;.H B I %.I ",
"N.[.;.X.$.R.].N.{.J.| | Z.| L P ;.Q W [ &X_._.@X-.| &.E.B.n.[.;.U I ;._.).@X~.U ' %.S.X.X.F.;.| &./.'.c.`.k.| +.A.U B H T.'.B.`.",
":.q.h q 0 ..,.:.7.I 7 8 H 7 & ; n ; - < A.A.H.J.h u q  .<.! 6.k & ; B T.A.J.| ; , 7 H q 0 Z s 8 8 O.<.:.6.J 9 q Z $ O o ^ ,.:.,.",
"Y.}.A.;.;.~.].Y.].J.;.;.H.;.=.&.F.&.&.-.@X_.@X#XA.d.;.T.R.[.}.H.=.&.A.#X_.#X).%.=.&.J.A.;.S.A.;.;.^.`.R.].J.;.;.S.| | ] T.R.`.Y.",
"s i a ] s y n [ Z Z X.n i a X.J Z W U a y I U B H | v s N ~.W.~.).B i a ] Z Z ' ~ a i U B i s ' a y M n : 1 A B i s | s y n A t ",
"8 5 5 S 5 < t U g f W a 5 < U j f Z B 1 < B H s k U 5 5 i ^.~.(.~.a 5 5 I x h D G 5 < N y < 7 Z 5 4 s h % $ a t < 5 H 5 5 s B 7 ",
"-.A.T.E.L.^.).@X_.G.k.;.A.~.].).~.A.S.A.A.V.Z.J._._._.J.;.J.J.J.;.%.;.E.R.].I.V.Z.;.T.Y.Y.I.A.G.k.F.+.&.#.W.)._.).k.F.d.A.| &.+.",
"; b y.<.<.P.W.F.(.H ; ; n s.( 0.&.y i M n ; ; n (.F.(.| ; ; 8 7 + @ y u.>.7. .> ; 8 i.<.<.t.b w g M @ @ * W.J.G.~.h q h B @ @ $ ",
"n { B.x.c.+X@X(.#X%.b n &.[.P.P.T.Q K [ ' b b | $X(.*XJ.N B ' U y 8 W '.i.c.k.v n U Y.j.c.].} W [ &.y i n #X@XoX#X[ W ~ | 8 a s ",
";.=.-.H.| ' | /.R.].|.' K H ;.| ' | ].Y.Y.+X].R.}.T.' ] &.&.H H =.A.&.&.~.].E.|.J.=.&.A.| | ' ;.} ' *.&.L L &.&.[ ' T.}.R.|.d.[ ",
"y 7 8 Z & * < p.3.( p.$ O . a ; & < 0.,.:.y.w.( 5.] & & 5 7     5 m q 0 o.9.( e.J 7 7 B 7 & ; n & & 5 5     7 < & & ] 9.( e.a $ ",
";.;.;.J.| | &./.E.).|.| ' Q Z.%.#.&.E.Y.Y.}./.E.}.(.| | ;.-.` ' ;.S.d.;.^.E.E.|.J.;.;.J.&.| #.A.&.| ;.;.U ' ;.=.| | ^.}.T.|.k.| ",
"a U ' Z U +.k a v ).)._.#X' J J +.v a n B 5 < H c.y.m.l.s s B #X).(._.n a a | H Z ' ~ a s W ] D J L.j.u.B.=.Z J &.B a s | Z J U ",
"; N Z u h U 5 < 8 ~.J.J.).M f k U 5 1 y a $ # g j.,.4.^ ; < 8 J.J.J.~.y , 5 U j p Z N < : n m u p w.6.<.y.R u u J 8 < 5 W h g j ",
";.;.;.S.;.d.;.F.k.~._.J.J.;.l.=.;.&.Z.=.-.-.;.k.T.).OX_.(.F.S.~.).~.J.;.;.&.;.;.A.k.;.A.I.(._.J.;.S.D.E.T.D.J.I.T.T.F.=.A.A.;.=.",
"7 5 < L 5 : 8 U a i J 8 : 2 n % # < b 1 < n G s y ;.W.S._.' u w H 7 ; 5 M $ # < N < ; A _.J.~.&.> < t L a y W y.1.8. .: : i e @ ",
"n a v ' b a H =.I H =.H v n ' y 7 a U s a Q ' G H ~.#X(._.=.L J =.H b M W t 7 a U a a } _.).#XJ.v v S #.H L ;.B.j.N.l.b z H S 5 ",
"}.XX X`.].I.U U ] k.| | ;.-.| | ~.|.}.|.&X#X#X&X&.| | T.].`.{.;.U U -.-.| | (.&XOX&X+XY.].}.=.+.| (.|.].XXA.| | k.[ U U T.'.].].",
"( e.4.T <.E   X $ a & & a 5 & & ^ 9.( 9.I.A.A.J.< & & ^ <.! 7.8     5 7 & & | J.Z.J.y.! >.5.> & &  .9./ e.s $ & a $   o E <.>.>.",
"E.|.].`.].L.I U | ;.| | Z.-.| [ I.|.R.^.&X#X#X&X&.| | U.'.Y.{.;.H I &.=.{ ] (.#X#X&XOXB.`.[.&.| | ~.}.U.}.A.' | ;.[ I I T.[.`.`.",
"W L J #.b b H =.W J &.K b M [ i y s U v z _ ] D U &.N v G ' s b | | R P !.#X(.OX] s z Q S v n &.W J ] ' s n |  .J W ;.~ H { U s ",
"x u g J 5 : 7 J r r J 8 ; 1 b $ @ ; s ; ; n Z u g J < : y b : : b C u r ;.~.S._.G , ; n 8 ; < J f r m n ; : n M u g ' a i B k ; ",
"d.A.d.F.=.A.S.~.I.T.T.D.D.-.k.| ;.H.~.J.;.d.d.A.;.C.&.;.d.A.;.;.;.A.A.A.~.(._.(.Z.-.Z.k.;.Z.A.G.d.J.T.I.S.;.;.;.d.d.J.d.F.A.k.;.",
"4 m i 5 3 X.i.9.p.c.2.6.h.a 5 5 ;.(.J._.H 1 1 B 2 $ & H m h F B 7 < M Z f h J 5 5 a ~ h h W B s z a.7.1.j.h $ $ s i 5 5 W j j M ",
"y L B i a d.P.s.P.`.y.6.c.b y i A.OX~.#X' i a U i 2 < U Z m W J 8 i ' ] Z J | a y N ] m Z X.~ S H K.j.y.M.H < < Z N y i | Z Z J ",
"A.A.A.G.[ [ +.A.+.X.F.*X#X&X).&.&.;.H.+.&.A.;.=.| (.&X@X#XXXE.].^.| [ } A.$.$.;.#X#X#X#X&.%.&.F.&.+.=.J.k.;.J.A.k.Z./.[.].|.k.| ",
"y 8 8 n O . $ a & % a ~.;.J.&.& & 1 a % % a 5 & $ | J.A.W.s.( ( w.$ . O y ; & < J.A.G.S.< & = b & & 5 Z 9 0 D s 8 e O.<.:.6.a & ",
"-.&.;.A.H H U ;.' Q A.*X#X&X).[ ' | -.Q ~ ;.&.' ' (.*X#X&XOXE.E.|.W H L ;.| ' | &X#X#X#X| ' ' Z.' ' &.H.+.+.S.;.&.&.^.'.B.{.;.' ",
"n ' U n n S.E.b.].&.n n ' b y y A.$X).&X+.n n | I n n { n n H &.U ' =.U N B =.' J | ] b N #.].K.U.T.W W | | n B | | W W | t a s ",
"; s 8 ; ; ' e.( e.C & ; b ; @ O [ ~.H.).m ; ; x 8 ; < M < ; 7 D w q Z 8 ; < H p q V b ; ; n g.( 9.@.r r m v ; ; n m w f N + @ $ ",
"-.A.A.;.=.J.I.XX+X~.F.;.k.&.=.+.J._.).).A.;.;.S.k.;.&.A.&.F.J.^.I.I.Q.D.d.=.F.A.A.A.F.;.&.V.U.~.U.I.A.J.~.~.A.&.A.d.D.L.T.;.&.| ",
"S n N ] y 7 t ~.~.!._.v 8 8 { S b H A 5 5 L J b Z U ; ; 5 ).(.W._.g.w.g.=.8 7 s | b b ' 7 = ; G 8 7 s (.~.~.).a 8 8 =.j.6.c.J 8 ",
"k s v U 5 5 8 J.J.J.W.8 5 5 K v s B n < 5 n Z g h D & % ; J.J.J.(.e...e. .< 5 y U s i U ; % & M 5 5 t W.J.J.J.8 5 2 @.4.<.y.n < "
};
