/* XPM */
static char *N1683235621[] = {
/* columns rows colors chars-per-pixel */
"64 64 256 2 ",
"   c #0A080B",
".  c #170A07",
"X  c #1C150C",
"o  c #140E14",
"O  c #0B141A",
"+  c #1B1513",
"@  c #1C1A14",
"#  c #15141B",
"$  c #1B151B",
"%  c #1C1B1D",
"&  c #141718",
"*  c #0C0D16",
"=  c #26160D",
"-  c #231414",
";  c #251A14",
":  c #2B1B14",
">  c #241B1C",
",  c #2B1D1B",
"<  c #291617",
"1  c #351D1A",
"2  c #2A110F",
"3  c #1B211D",
"4  c #172215",
"5  c #24231D",
"6  c #2C231C",
"7  c #2A2313",
"8  c #36251C",
"9  c #302916",
"0  c #0B1B2A",
"q  c #141B24",
"w  c #1C1C23",
"e  c #141D2D",
"r  c #1B1D2B",
"t  c #191526",
"y  c #131D31",
"u  c #1B1D33",
"i  c #161B3A",
"p  c #0E1C33",
"a  c #231C23",
"s  c #2B1E23",
"d  c #231D2B",
"f  c #2A1C2C",
"g  c #241527",
"h  c #351C26",
"j  c #231E33",
"k  c #2A1E34",
"l  c #311B31",
"z  c #0D2629",
"x  c #1D2325",
"c  c #15222D",
"v  c #1C232C",
"b  c #1C2A2C",
"n  c #162626",
"m  c #0D2538",
"M  c #152334",
"N  c #1C2434",
"B  c #142B34",
"V  c #1C2B34",
"C  c #14243B",
"Z  c #1C253A",
"A  c #152D3B",
"S  c #1B2B3C",
"D  c #1C3134",
"F  c #1B323C",
"G  c #163438",
"H  c #143131",
"J  c #242325",
"K  c #2B2424",
"L  c #2C2A26",
"P  c #24242C",
"I  c #2B232B",
"U  c #242A2D",
"Y  c #2B2B2D",
"T  c #252A25",
"R  c #332424",
"E  c #332B25",
"W  c #33252C",
"Q  c #332B2B",
"!  c #3B2A29",
"~  c #38322B",
"^  c #232533",
"/  c #2A2433",
"(  c #242B34",
")  c #2B2B33",
"_  c #23253B",
"`  c #2B253B",
"'  c #232B3B",
"]  c #2B2C3B",
"[  c #332533",
"{  c #332C34",
"}  c #3C2C34",
"|  c #332C3B",
" . c #3B2D3A",
".. c #352438",
"X. c #243234",
"o. c #2B3235",
"O. c #24323C",
"+. c #2C323C",
"@. c #2A3B3B",
"#. c #343234",
"$. c #3C3235",
"%. c #33333B",
"&. c #3C343B",
"*. c #3C3A3D",
"=. c #373B39",
"-. c #2A312E",
";. c #44181A",
":. c #461E23",
">. c #442B2A",
",. c #46352D",
"<. c #462E39",
"1. c #433434",
"2. c #42343C",
"3. c #453B3B",
"4. c #4B3C3C",
"5. c #4A3635",
"6. c #543A3A",
"7. c #512D35",
"8. c #48433C",
"9. c #55433C",
"0. c #44432F",
"q. c #6F4234",
"w. c #1C2543",
"e. c #152B42",
"r. c #1C2B43",
"t. c #172949",
"y. c #1C3444",
"u. c #132E4C",
"i. c #222543",
"p. c #2C2443",
"a. c #242D42",
"s. c #2B2D42",
"d. c #252C4A",
"f. c #29284A",
"g. c #352C46",
"h. c #233244",
"j. c #2B3343",
"k. c #23334A",
"l. c #2A384A",
"z. c #3A3A43",
"x. c #333C4B",
"c. c #373545",
"v. c #2B3652",
"b. c #323550",
"n. c #262554",
"m. c #2F2B50",
"M. c #443D44",
"N. c #473A48",
"B. c #543A45",
"V. c #492D43",
"C. c #3B434A",
"Z. c #3B4453",
"A. c #444344",
"S. c #45444A",
"D. c #4C444B",
"F. c #4A4848",
"G. c #544B4A",
"H. c #574847",
"J. c #5A534B",
"K. c #494854",
"L. c #574B56",
"P. c #5B5354",
"I. c #585659",
"U. c #4D5456",
"Y. c #644946",
"T. c #67564B",
"R. c #654C55",
"E. c #645B5B",
"W. c #6B5D5C",
"Q. c #665556",
"!. c #755B58",
"~. c #74514A",
"^. c #696357",
"/. c #75645D",
"(. c #75715D",
"). c #5A5864",
"_. c #4E5363",
"`. c #6B5C64",
"'. c #635964",
"]. c #745D64",
"[. c #7A5870",
"{. c #596466",
"}. c #6C6463",
"|. c #6C646A",
" X c #676669",
".X c #726463",
"XX c #71656C",
"oX c #736B6C",
"OX c #7B6D6B",
"+X c #7A6666",
"@X c #79756C",
"#X c #6B6875",
"$X c #746B74",
"%X c #7C6C73",
"&X c #7A6B7A",
"*X c #75727A",
"=X c #7C737B",
"-X c #7B797D",
";X c #797574",
":X c #6B7271",
">X c #5B615F",
",X c #85513C",
"<X c #82685B",
"1X c #845F65",
"2X c #856968",
"3X c #83736D",
"4X c #877A6A",
"5X c #836D74",
"6X c #886877",
"7X c #837473",
"8X c #8B7D7C",
"9X c #867A77",
"0X c #947A77",
"qX c #93706E",
"wX c #A57C74",
"eX c #855B5F",
"rX c #7E8271",
"tX c #8C827B",
"yX c #888578",
"uX c #958379",
"iX c #988C76",
"pX c #BF927F",
"aX c #7A7883",
"sX c #8A7D82",
"dX c #867C85",
"fX c #997F82",
"gX c #788589",
"hX c #898587",
"jX c #938C8C",
"kX c #968786",
"lX c #9B928E",
"zX c #989487",
"xX c #898A93",
"cX c #938C93",
"vX c #9A9493",
"bX c #979699",
"nX c #8D9482",
"mX c #A58B89",
"MX c #A69A8B",
"NX c #A48D97",
"BX c #A79A97",
"VX c #B7968D",
"CX c #A5A29D",
"ZX c #ABA498",
"AX c #B6A399",
"SX c #ACB098",
"DX c #999BA5",
"FX c #A7A6A6",
"GX c #B3ACA8",
"HX c #B7B5AD",
"JX c #9CA18D",
"KX c #C5B1AA",
"LX c #CCAF9D",
"PX c #D1C8B8",
"IX c #E8CEBF",
"UX c #E7D9D0",
/* pixels */
"u.u.f.` ^ _ p.p._ | :.VXqX>.) ' e.u.C M j.' i d.Z ) I [ I ' e.S 5.IXSXzXT 4 G D ` j g.f.i i.t.Z K +XC.b S S p.p.k k ] ( X.x J $.",
"u.u.u _ h.' p.p.a.# 1X~.Y.kX| y w.0 l.O.Z Z a.Z Z _ ) P %.] p Z.ZXMXT.@XyXT x X.^ g.u g.d.i k.' K +XA.P S w._ i.p.b.u x Y ) Q oX",
"t.r.' _ B A w.A y.z ^.9.: P.hX Xw %.c k.m r.j.u ^ +._ Z ( _ ( bXW.0X9.. kXnX-.P j.a.d.i i.b.e ] s OXM.P V S w.C ' r | / g  .=X2.",
"m k.j.^ z H A A H H yX,.; % N.cXOX; _ y t.w.a.a.N l.Z Z h.q bX4X+ GXE ~ X tXhXU y a.w.r.r.Z s.^ K oXA.^ ' F A A A e ] { <.&X .f ",
"e.A V b V O.' N O.& 9X8 6 =.x P 2X0XQ b M a.' ' a.y k.Z c -XzX= J.jXL Q 6 J hXhXV e Z x.a.e s.) P oXN./ ( S G G G D d V.dXV.l l ",
"h.M v ) ( x d g.T sX+X2 ~ @ ( ) >./.lX*.' V N S a.N A V _.FX~ . @X4X+ I { | r xX*X( x U ( s.u j.d $XN./ ] ' G G G V ) &XV.g V.k ",
"X.( U [ Y I V.R.5XmX~.2 ! Q #.J > : T.MXH.a ] ' M x.c K.CXL L 5 yXT.> | _ w.i.* vX9X8 ; Q ^ d.i.^ $XN./ ) ( V B D U *X2.l g.i j ",
"P [ I f  .R.+X+Xh 2X!.7.>.K t P I Q 2 6.VXOX# ] ' c =.FXJ.3 T 5 MX,.w s.t.t.n.Z @XZX4X7 K %.i v./ &XN.` ` ^ U b =.*XD.I / ^ i.w.",
"h h  .I.$X'.} ; >.0X+X7XsXcX&X`.K._ } 2 2 iX4XR w =.FXP.@ =.O C.zX~ J ' d.t.d.` cX7 4X4X6 ) i d./ 5XN.Y d | f <.;X&.Q ) v O.A A ",
"..R.aX).| w J Q ,.W.6 K } B.).dXxXDXdX3X<X7.iXiXE jX XU T v V U.nXK P j.w.i.i ).yX; : iX}.J c.j l 5XD.d { g B.6XB.h d T F G m v.",
"+XI.c.c r +.-.@ W./.T x v ^ t j Z N K.).<X0XiXLXPX3XJ ( Z.V q #X*Xq ^ j._ ] r hXP.K X 6 9XhX$ W h 5XD.J ) } NX6Xh : { @.H G G m ",
"%.^ A A S ^ T 5 T.H.x X.' j.' u ' _ u P ; 8 ;.q.VX6 ' A 0 h.x xX_.c ( / P J { vX#.a #.J d XX9X, 1 0XB.> &.cX7.R.6X7.> U b H B B ",
"n z m y.k.` I 6 2X5.x @.c M G B l.' h.^ #.: Y.AX: J j.A M ' { cXl.A O.x Y > J.hXa ) g M.I > 3X0X>.!.9.! sXD.s h N.5XP.% T +.( ( ",
"V O.y.m Z j Y 1.mX7.% O.y.S F B C a.e ] I 3.iX3.Y ) S S b.^ 2.kXN h.( c o.J -XE.K I l o } XX;XuX~.2X!.9X4.{ J ) K K E.dXM.$ I I ",
"f ] m e.v.s.T 3.mXeX| c s.s./ ' r.y z.f > lX Xr r.C k.e d s `.sXr ' ( V X.@.nX#.> < B.0XNXOX*.6 !.LX0XY.} & X.n n =., 5.6XR.h l ",
"l ..C e.d.e J .XH.5X).v ` p.g g.h.Z [ , mXkX# O.r.r.Z ' | $ %X$XP _ V ' n C.hX& H.8XNX`.W J P ) ! !.kX< Y Y @.n -.T < B.2X6X].} ",
"` k ^ _ a.O.% @XA.Y kXD.t p.g.r P %.> /.uX3X.XP j.M k.Z ' P hXU.M w.M =.+ yX8X3XlXP.P r Z O.Z ' / a *XaXZ N / Y Q = Y.0X1.a L.#X",
"s.g.) P M c ~ hX] / <.kX| ] ) U ) % `.kX, = BX|.# +.y j.y ] DX( y.m V ) ; VXuXT.- K _ S A w.y.r.j.P N #X XU Y + R /..X< Q %.( ' ",
"M V o.( ( r H.OXf _ > Q.aXb z @.% D.bX{ % { s hX$XI I Y Y z.dXr C A +.P G.8X: 2 K { b _ a.' h.y e +.( $ AX/., ,..X}.w ] ) P q ^ ",
"V n % J ( f ].!.f { R + aX_.x @ =.bX] v x.v r I jX=X; : , `.*Xo.' h.( & ;X/.. E Q Y ( ] Z N ^ +.N ) / Q.T.~.2X/.E.# j._ ' ^ ] _ ",
"K.L.'.5XdX[.BXR.P { K R W jXR.h jXU.q l.M M j.x L kX0X7 : tX}.* ( ( ( #.bX;XJ.Q % * ^ ^ ( / w ) z.o G.uX: 1 <X0X$ ] w b.0 ' b.v ",
"=X+XQ.H.N.<.5X[ n U T ~ > B.6XfXE.P N B y.C h.+.E 6 uX<X= 9X8.Y U ( % S.vXoXjXjXhX XK.P a Y J K o 1.0X>.>.8 : !..XP / v l.M e a.",
"% 3 > s f z.aX+.G H G 4 %.$ qXkXg w O.Z h.r.' c J + 9.IX/.MXQ L T #.% :X Xo J *.{.-XaXcX;XD.$.: 2 kXJ.s 1 >.K Q kX!.R %.x ' k.e.",
"o.o.Y / [ N.*Xq G G z H & XX6X1 I ( ) O.c O.q P U.zXvXG.BXCX; 6 K J J bX=.w +.w t U % ;XBX9XMX0XkXuXR > : E a G./.2XW.I w ] t.t.",
"b n =.l h [.R.l k ^ V q K.jXh h ) ) ) P w #. XbXxXK.X.& 3 jXyX@ Q 6 F.cX% ( ( ( ( P J hXH.. uXQ..XdXBX*X_.S.> 7XJ.. <X/.f ] Z a.",
"D b ( f l 6XV.l ....v x.xX[ W W P w J S.=XvX*XS.O.A V F b Y vX9XX ; ;XoXc X.( O.U U I lX4.= uX3.* P | ).aXhX5XuX8 ! : /.oXx ] ' ",
"H D V P [ 5X/ ] T 3 h.gXU.Y # | ] _.dXjX.XE % P M 0 y.l.X.o.@ BXtX7 vXC.v @.V ( ( J 3.vX6 ,.kXK j.x.e v d + %XOX, ! P I oX+Xs I ",
"b V ' ^ D.oXt ( T o.gX{.* Y %.).xXhXI.I @ W #.^ S v.m A O.& $., tXkXhXT +.O j.c o.% }.yX. G.uXx M C Z ^ ! 2 vXoXR 6 %.^ P |.oXR ",
"'.N.k $ R.OXJ Y : .X|.* 2.+XNXaXz.r $ P %.P r N e h.l.0 @.) & E ^.UXnX& @.q O.( #.+ jXE.  +X;Xr v.r.Z P I H.BXkXI ^ / ) w ) |.oX",
"[.XXaXE.!.9.X 6 <X2XH.fXkXR.W g t | g.' _ j.j.Z j.N ^ %.  %.:XCXjX~ FX*X0 x.c ( U J BX3.. hXI.x M S ( %.o $X!.7XI.x [ P +.] # *X",
"# d z.I.uX0XT.9.pXiX<XH.2 - ) U g./ N a.e.m e.y.V P w { hXFXcX*.X K J DXxXO O.b x A.vXR 5 vXA.P %.] v ^ ^ bX%.A.vXR I *.P N d.m ",
"/ ] x J ; ,.}.lXVX,X2 < ! 1 L X.P ^ ' S k.k.w.y q S.hXGX;X=.# P #.3 ( V DXgXx ) % E.tX; L bX%.( P / o.r K.DXd J 8XT., J ) _ a.C ",
"I / ) ( P b ( ( G.XXhX%XH.1 : K +.] V N O.n O U.cXGX*X) $ r ] ] ( Z ' ^ x FX9X5 7 yX}.o G.bXP b u s.o.o hXI.- ! J.tX+ Y g ` f S.",
"I ) P r ' O.B Z e N c.I.sXlX/.1.* r O.x x ^.bXFX>XJ U P N x.Z p F Z d.y ] g GX4X  SXF.o C.bXY U l.N 3 L BX3.f R = 4XG.A.L.aXdXtX",
"N.f P ] V v h.O.' ] { % a 3.W.GXbX|.[ I.CXjXF.5 3 x v V S Z k.h.n n Z w.i.) 5 zXiXiX6 > #XxX* O.M O.U P.%X. } 2.J.nXjX#X#XK.%.% ",
"=X-XF.a P O.v r ( b r P Y I | fXG.7XGXPX@X5 ; 3 3 =.( ' a.m t.w.+.] _ b.j o.X ~ UXiXL & DX).t N _ j.& yX=X|.dXdX^.F.=.( i.u x Q ",
"Y M.$X*X2.g / | ] U b X.U a N.jXs , s J.hXZXjX8.=.  U O.^ h.r.w.i f._ T 5 4 yXJX^.rXnX& hX).j ' ^ v -.HX9X|.M.^ ) w P ^ _ d.P x ",
"b P { I.sX'.s > P b T n P / #X&X$ | I $ K $.^.FXnXoXA.J w U ( ] b.p.J 5 (.SX@X0.@ #.jXhXcX%.j ` ) J >X(., I l | d P Z d.u h.( o.",
"] ) ^ d z.%X-XP.5 J Y U Y Y dXL.] y ] ( r I 3 o  XKXGXtXOX~ = ; g g @XSXyX#.( Z a.N -.SXSX; &.f L E tX9.; s W f | ] ' j.Z e x b ",
"N ' ] ) x x S.-XoXB.s K #.[ xX+.N i.d.' +.x x oXCXJ.9 9.AXPX4XT.H.MXyX0.@ _ i.n.n.N x 4 iXyX+ K 6 ~ KXzXW.5.W f f s.' Z ^ V o.T ",
"p._ Z B D b n T P.fX!.:.< H.oXY s.a.' y r Z.cXhXK X E ~ MXVXT.iXPXMX~ 9 & v b.i.i.y &.J 5 zX@X= 9 ^.MX4X9.8XsXP.| _ u u ( +.Y T ",
"p.p.' Z B F X.Y - h 0XmXY.Q.3X$ ] u ] ] *XxXL.& ~ $.X 4X/.uX5.: : /.ZXvX-Xx.N e s.j.w o.Y + zX3X7 (.9.2X6.1 B.Q.dXaX_.s.q # x ) ",
"C Z ' _ ^ P w w 3.^.kX9.].LX~.2 R I &.dXaX{ a #.a K L CX~ :XoX% ..t $ P.PXJXnX(.3 3 Y P { W a 8XiXiX= 4.0X: 6 Q ` K.aXxXaXI.#.w ",
"h.S _ ] j / N.|.;XI.T J 1 >.2X2X7.W.NXBX$.K > { ) J -XaX& K.jXx g.` F.GX0.4 J.rXGXhX8.#.  I g.a ZXQ., , 3XY.8 K g.j u s.I.:X$X X",
"n U ^ f B.&XdXL.T b n 4 Q >.;.qXAX.X- W.W.> M.a P P bXz.P =.DX/   |.HXA.% P %.P T U.PXJX@XG.d d hX#.d I ~ 9X$.5 j _ _ v n U S.).",
"Y % } ].&XL.p...N b X.o.s h Y.0X5.s W 4.sXP w | /  XxXP ) & hXF.@XFX3 w %./ $ I K nXyX1.oXvXhXcXrX) ` ] a ^.P.3 ] i.a.' U T u u ",
"7.!.3XD.J v _ v ] j  .g 2.sX.XQ f { P ^ xXc.) ) P aXD.K E + 7XZXyX3 Y %.t | 6 J.ZXoX$ l $ a 8.JXS.r s._ P T  XU.N i.S V b P ] g.",
"1XH.W T -.U V o./ ..- ].NX4.> % I d { d ). X) a U.cXa Q Q ; 5.BX5 3 #.P / Y ;XvX8.o c.p.../ 8 iXX.V Z _ ( 3 >X XN Z _ ' Y Y k j ",
"P _ / P ) ( b U 3 H.qXeXeX2X2XW.B.} h h 8 9X$.+ hXF.x J ) > $.jXM.a ~ = F.vXaXx b ] Z f.j K ^.(.) M j.M ' ( x aXK.| / > R , H.+X",
"y.V ` ] j ^ ( 3 E.^.Y.qX;.:.B.R.%X2X+XR.,.2X9.$.;X=.b U o.x T dXL.h = (.BXU.t _ a.Z Z i.s.Q 4XT.  ( N j.S S ] x.*X$ 6 5.2X2X+X6.",
"M ' ` ` / ^ Z.rXJ.~ 8 q.qX1 2 Q I { M.}.!.kX3X`.L.P / ( ] ( q ).dX} hX@XE Y ^ _ Z B j.i.u } vX4XW.+ +.V a.r.Z v oX3X2X2XH.} g t ",
"| / ../ s._.:XC.T 5 : 1 2X+X- Y +.U J L s W 5XfX{ / | v S j.v c.sX6XE.L a P j j.Z A Z s.g '.W.~ 3X}.J ' y a.' P 1.9X7.1 > ] j.b.",
"I ....N.&X).( & b $.E , 5.kXG.% H H x o.W $ 5X`.f g.] _ Z r.A v cXB.% ( ` ] ` N A y.c ] W =XY a 8 7XXXd l.c ] ) . R.!.s  .j r.e.",
"W [ L.XXN.u V O.o.Y Q s 5XH. X=.O.F n J { <.%X[ k ..i a.r.C y.c W.9.+.v j g.j ` S F D q D.XXf z.L + |.hXU ) I W 1.R `.c.j s.t.t.",
"H.XXL./ u _ ] ( b o.> P.E.o F.gXV b U Y K L.W...` _ j d.r.e.e.v H.;Xq C b.i j.` F B b x +XI.t 0 ) / U P.9X>.< $.d $ L.aXN ' y i.",
"].2.f / p.i.S N ] P J dX$.a Q F.:X) P #.K %XM.d / _ d.w.C k.r.V E /.+.i.f.i.` ^ C D X.#..X&.i v.Z ' X.# H.0X4.; Q / j {.Z.e g.k ",
"K Y P V ' S N ( ( P '.G.P { I f [.`.g h B.|.Y P ( ( A r.w.S S ( 7 OXj.w.w.f.j ` S V x F.E.T k.t.e.k.j.d > 3.Q..Xa / ( x.#X/  .g ",
"K / b v S S ' _ v N.).#.) f  .f l 1XB.h +X3.% ( D S A A A S ' / 7 T._.Z n.i.Z ' _ ( x ^.F.P d.t.u.C N ] ) J $.Q.}./ r ) L.R.R W ",
"P ) B B D F ( ^ r '.D.P ) f g.l l 7.1XR.+X, T U D V B A A ' ' / K 3.#XZ d.w._ S P ) #.oX-.U Z t.t.r.r.r.( N ^ %.L.+X} < s 8X, >.",
"N ] D B F S _ I 2.|.{ ) r ] ` [ <.h V.kX4.K T T V H A G Z ' ' / L K *Xp.' w.S ( P I P.I.3 D C d.M k.y.C M d.a.r ) D..X7.: 4.].< ",
"N ' F A F V ^ W '.G.5 o.c h.^ ` l } $ Q.E.Y J J ( V A S S _ ( / [ a |.N.Z S A ( f R 5XM.c O.Z ' S Z S r.r.A ' ' / K $.5X5.h Y.6.",
"_ a.e.A A N ) N.].W T U D Z Z a.] ^ | $ '.P.P P ( V S ' S _ ' _ ) g L.R.c F A O.h 7.6XJ V A V V h.Z N a.h.B Z ' ' _ ( { !.6.6.~.",
"i.i.A e.A ^  .R.B., -.n F m e.e.y.B ] ] I *Xz.| ` ' _ ' S S S ' ' I <.].V G G B h R.R.g y.A N ( A r.' ^ I / ` N a.w.w.' K ~.~.q.",
"f.i.e.A S v N.].< R -.H G A e.e.m l.z b #./ =X/ ` ` _ i._ S _ ' _ / >.+X@.z y.B h qX<./ y.A b X.w.w.S U I K P Z e.e.v._ / 1 q.,X"
};
