/* XPM */
static char *S1683235620[] = {
/* columns rows colors chars-per-pixel */
"64 64 224 2 ",
"   c #020203",
".  c #090504",
"X  c #050905",
"o  c #0A0A06",
"O  c #030609",
"+  c #0A060A",
"@  c #030A0B",
"#  c #0B0B0C",
"$  c #110C0E",
"%  c #0D110E",
"&  c #04100F",
"*  c #13130E",
"=  c #040D11",
"-  c #0C0D11",
";  c #000510",
":  c #110F12",
">  c #041214",
",  c #0D1214",
"<  c #0A171A",
"1  c #131414",
"2  c #131619",
"3  c #141A1B",
"4  c #1A1C1C",
"5  c #171916",
"6  c #1B221D",
"7  c #21241E",
"8  c #0C1C21",
"9  c #191E22",
"0  c #142324",
"q  c #1B2324",
"w  c #1C2C2D",
"e  c #1A2728",
"r  c #162D34",
"t  c #1D3337",
"y  c #0F2123",
"u  c #232524",
"i  c #232B2C",
"p  c #2A2C2C",
"a  c #252727",
"s  c #27312E",
"d  c #252D31",
"f  c #243334",
"g  c #2C3333",
"h  c #2C3B3C",
"j  c #293739",
"k  c #323434",
"l  c #333B3B",
"z  c #3B3C3C",
"x  c #353A36",
"c  c #32332F",
"v  c #231F1E",
"b  c #443F3D",
"n  c #3B443D",
"m  c #41443E",
"M  c #1F3C41",
"N  c #2C3D42",
"B  c #253C42",
"V  c #363E42",
"C  c #2A4347",
"Z  c #344343",
"A  c #3B4343",
"S  c #3B4A4D",
"D  c #364649",
"F  c #3A4D52",
"G  c #3B545A",
"H  c #2F4A5B",
"J  c #3F5E63",
"K  c #424344",
"L  c #444945",
"P  c #444B4B",
"I  c #494A4A",
"U  c #49504D",
"Y  c #484F52",
"T  c #435153",
"R  c #4C5254",
"E  c #4C595C",
"W  c #47575A",
"Q  c #525454",
"!  c #545C5C",
"~  c #5B5D5D",
"^  c #555857",
"/  c #514F50",
"(  c #5A635D",
")  c #495C61",
"_  c #555D61",
"`  c #4C6368",
"'  c #546264",
"]  c #55656A",
"[  c #54696C",
"{  c #5C6768",
"}  c #596D72",
"|  c #5C747B",
" . c #597478",
".. c #4D6D73",
"X. c #626364",
"o. c #656A6C",
"O. c #676A6A",
"+. c #6D7374",
"@. c #63757A",
"#. c #667678",
"$. c #747474",
"%. c #757679",
"&. c #7B7C7C",
"*. c #767979",
"=. c #676F72",
"-. c #7B807F",
";. c #5C7C83",
":. c #647C84",
">. c #6A7C82",
",. c #7D7E81",
"<. c #817F80",
"1. c #688488",
"2. c #7B8384",
"3. c #77878A",
"4. c #7B8E94",
"5. c #6D9295",
"6. c #769699",
"7. c #6B8D93",
"8. c #7B9AA5",
"9. c #729799",
"0. c #838484",
"q. c #84868A",
"w. c #8B8B8C",
"e. c #878988",
"r. c #908F8C",
"t. c #8C908E",
"y. c #92928E",
"u. c #898E91",
"i. c #899498",
"p. c #939494",
"a. c #979996",
"s. c #9B9C9B",
"d. c #969898",
"f. c #918F90",
"g. c #A09E9C",
"h. c #9CA19E",
"j. c #A2A29E",
"k. c #849CA4",
"l. c #969DA1",
"z. c #89A4A8",
"x. c #95A4AA",
"c. c #9CA9AD",
"v. c #99A4A6",
"b. c #9CACB2",
"n. c #93ABB4",
"m. c #9AB4B8",
"M. c #8AA7B5",
"N. c #A4A4A3",
"B. c #AAA9A6",
"V. c #ACACAB",
"C. c #A6A7A7",
"Z. c #B1AEAC",
"A. c #AEB1AE",
"S. c #B2B1AD",
"D. c #ACAEB2",
"F. c #A3AEB2",
"G. c #ABB2B4",
"H. c #A7B7BB",
"J. c #B4B4B3",
"K. c #B6B9B5",
"L. c #BAB9B6",
"P. c #B5BBBA",
"I. c #BCBCBB",
"U. c #B7B6B7",
"Y. c #B4AEB1",
"T. c #A19FA0",
"R. c #C1BEBC",
"E. c #BDC1BE",
"W. c #C3C2BE",
"Q. c #A9BCC2",
"!. c #B8BDC2",
"~. c #9FBAC3",
"^. c #C0BFC5",
"/. c #AAC1C7",
"(. c #BAC3C5",
"). c #BAC6C9",
"_. c #B6C6C9",
"`. c #BBCED4",
"'. c #C4C5C3",
"]. c #CBCAC6",
"[. c #C4C5CB",
"{. c #C4CACB",
"}. c #CCCCCB",
"|. c #C8C7C5",
" X c #D0CFCB",
".X c #CED1CD",
"XX c #D2D2CE",
"oX c #C8CDD2",
"OX c #CDD3D3",
"+X c #C9D6D9",
"@X c #D4D4D3",
"#X c #D8D7D4",
"$X c #D5D9D5",
"%X c #DADAD6",
"&X c #D6DADA",
"*X c #DBDCDB",
"=X c #D4D6D9",
"-X c #E0DDDC",
";X c #DDE0DD",
":X c #E2E2DE",
">X c #DADEE2",
",X c #E1DEE0",
"<X c #DDE2E3",
"1X c #D9E5E8",
"2X c #DCE9F1",
"3X c #E3E4E4",
"4X c #E6E9E5",
"5X c #E9EAE6",
"6X c #E4E6E9",
"7X c #E5EBEA",
"8X c #EBECEB",
"9X c #EAE7E6",
"0X c #EEF1EC",
"qX c #F2F2EE",
"wX c #E9EEF1",
"eX c #ECF3F3",
"rX c #EDF9F9",
"tX c #F3F4F3",
"yX c #F4F9F4",
"uX c #FAFAF6",
"iX c #F4FCFC",
"pX c #FCFEFD",
"aX c #F4F6F8",
"sX c #F1EEED",
/* pixels */
"K K K _ l.<.<.l.,.,.<.<.<.<.l.f.y.s.h.a.y.s.h.C.h.J.d.V.D.D.V.P.L.Z.j.B.S.j.B.W.R.U.Y.Y.D.Y.U.!.C.C.U.C.e.f.s.d.U.u.<.w.=.O.o.R ",
"P V / %.<.l.l.<.<.<.<.<.d.l.p.f.a.a.s.h.j.j.A.A.N.I.V.G.Y.D.D.K.L.B.B.K.W.L.L.L.^.|.oX}.^.^.^.^.^.Y.!.C.f.l.C.l.D.D.s.%.o.o.~ V ",
"K Y O.f.<.<.l.l.<.<.,.<.l.l.p.<.y.a.a.h.j.V.A.A.J.U.C.U.I.].].!.|.W.W.W.W.I.W.W.^.|. X[.^.^.^.[.[.Y.R.U.V.V.V.s.C.^.l.$.%.%.~ Q ",
"K o.<.l.<.<.T.T.<.>.,.<.T.T.T.l.s.h.h.j.S.K.K.A.C.G.I.[.^.[.=X=X#XXX%X@X].}.@X.XXX=X@X}.^.[.=X,X|.Y.^.[.U.Y.V.N.C.B.e.%.<.,.X.=.",
"Q <.l.d.<.l.d.d.&.$.,.f.T.d.p.d.a.a.a.h.C.A.A.C.J.D.I.[.OX=X=X@X}.}.}..X@X&X%X{.}.@X*X%X=X@X@X X}.^.}.'.U.I.U.U.Y.g.e.e.<.%.O.O.",
">.l.<.<.d.l.l.<.-.*.0.f.p.f.f.p.p.a.h.j.B.A.J.V.K.P.[.'.*XtXtX6X6XeXwX4X7X8X8XuX8XtXaXtXtXtX9X,X#X,X,X|.|.oXW.'.B.r.e.e.<.$.O.Q ",
"<.<.<.<.d.<.d.<.p.f.d.T.N.N.C.V.N.A.K.E.E.|.}.{.'.3X>X,.Q I / ! P ! Y R { ! Y ~ Q ^ / / / / / I / / / K I b L e.W.R.R.Z.j.g.g.r.",
"<.<.<.s.f.<.T.d.g.N.N.B.V.Z.Z.V.A.E.'.'.'.].OX@X@X3XU.p   - + O # >   3 Q P ,   O + + . . + + + $ .   - 1   c |.-X].W.R.R.Z.Y.R.",
"<.f.f.<.f.w.e.l.C.s.s.B.Z.B.N.C.J.E.W.U.E.XX.X}.,X@Xk p p 3 1 2 < < 3 E +.+.P 3 , 3 2 2 4 1 1 5 v i 2 q 4 1 P.<XR.].|.U.S.S.B.j.",
",.<.f.f.<.<.d.V.d.d.s.j.N.B.B.N.K.L.W..X.X(.].@X,X^ 2 a k p : - u O l ,.+.+.*.g 1 , 1 3 4 5 1 1 , 4 9 i   t.;X'.'.L.J.G.Z.V.j.e.",
"<.<.f.f.&.w.B.V.d.a.g.j.j.j.j.N.E.A.C.I.E.E.4X8Xs.2 k p k l p 9 @ i o.2.*.o.2.=.e , - 3 2 < 3 , , e 3   R *X4X'.R.V.J.K.Z.V.j.r.",
"$.,.<.$.$.f.B.g.g.g.g.B.Z.j.B.L.K.E.J.'.W.].%Xv.: + p 2 2 2 9 :   _ $.( +.{ o.,.V , O # O ; - O O < O g 1X1X{.(.{.].'.I.A.j.a.y.",
"$.<.<.<.p.T.N.N.a.a.s.j.j.B.S.L.V.E.K.W.'.|.'.$.z I I / _ / / / X.-.&.2.*.q.2.*.q.R h Z l A S V V j d l.7X+XoX).F.E.F.N.P.P.B.D.",
"<.<.f.T.Z.a.r.Z.Z.R.R.S.L.].XXW..X.X'.}.}.*X8X@XtX6X6XtX8XpXtX8X8X:X%XeX<XeXeX7XwXoX!.(._._.).H.Q.F.b._.z.x.v.i.u.u.-.i.@X3X.X{.",
"$.<.f.C.j.y.y.j.Z.Z.B.Z.L.W.W.L.].}.].{.}..X&X*X,X#X>X>XoX,X*X X|.}.'..X$X$X<X<XH.c.v.v.b.c.x.x.k.l.Q.x.x.c.l.d.i.2.u.K.&X&X{.P.",
"<.<.g.V.j.Z.R.S.Z.a.a.L.XXW.W.XX].}..X|..X%X%X>X&X3X@X3X9X@X@X].|.@XXX'.&X3XeX+Xv.c.c.c.b.b.b.H.x.c.b.H.H.c.i.i.i.2.F.<X+XK.P.J.",
"$.d.R.g.Z.R.R.g.B.j.j.Z.W.W.W.W.W.-XW.W.5XXX5X%X3X6X@X%X-X9X XW.XXW..X.X;X1X1Xc.l.m.m.b.H.Q.F.Q.!.`.Q.F.E.z.u.i.3.a.$X1X.X}.K.J.",
"<.g.j.j.B.Z.Z.B.B.Z.S.R.W.W.W.W.#XW.#X#X#X-XXX-X3X*X3XsX%XL.-X].R.W.].;X$XrX(.z.m.Q.H.H.Q.b.F.).`.Q.).).H.P.u.t.h.E.@XW.4X5X%XI.",
"p.p.f.y.g.j.j.Z.B.Z.R.W.L.W.W.W.W.R.W.].qX5X5XqXyX5XaX3X3X XR.].}.#X{.OX1X_.c.H.H./.Q._._.Q.).+X+X(.`.'.).G.(.u.).7X$XXXsXqX;X5X",
"j.j.g.g.B.B.Z.R.R.W.W.W.W.W.W. X%X-Xj.b ^ / X./ Q X.I U.9X#X5X-X:X*X;XeX{.( { [ }  .@.} } ] F N A h l j i T e 0.+.n L ^ I I L m ",
"j.B.S.B.R.Z.R.R.XX#XXX#XW.%X%X%X:XsX%Xx . c k g l 4 Q 8X0X:XuX5XuX7XpXrX#.T ) F [ [ } @._ V e = O > @ O > # g eXh.* 7 7 7 * 7 X ",
"y.B.W.R.R.R.R.W.W.XXW.W.XXXXXXXX-X:XpX}.m c A L g n *XyX0XyX%XqX;XeXrX2.V _ ) [ ' W ] @.) B e d # # , O , @ @XeX5X-.6 7 c 7 * $.",
"j.R.W.W.W.W.W.W.XXW.XXW.XXW.#X%X#X X@XyXt.q l V j (.iX:XqX:X5X5X7XrX).T o.@.) } } ) [ _ N 9 e d e   3 #   s.uX}.5X;Xm 7 7 * m :X",
"j.B.S.R.R.W.W.W.W.XXW.#X%XW.W.XX%XXX8X3XwX+.l e 2.rX7X:X0X:X5X4XiX.X! E E ) @.=.} =.} F 9 w g 9 9 u #   ~ eX5X3X;X5XW.c 7 6 ;X%X",
"B.S.W.W.W. X XW.XXW.XX%X-XXXW.#X%XXX5X$XeX+Xn ' rXeXiXrX0X0XqXyXyX3.E ' ! #.{ #.@._ N > ; 9 3 - 2 : O k aXpXwX8X:XyXyXh.o y.:X%X",
"B.R.W.W.W.XXXXW.W.W.W.W.W.XX%X%X#X:X.X;X7XiX/.i._.`.).(.E.S.W.E.t.n U ' T S ! S V o._ Y _ R R ! R _ R l.!.D.D.D.S.j.S.j.0.0X:XW.",
"B.Z.R.W.W.#XXXW. XXXXX X#X5X5X:XqX4XyX0XrXrXx.E Z F S Z m ^ c 0.E.@ & & @ q 6 O < !.rXtXaX>X6X8X6X6XoXq.: V k p s 7 * U %X:X5X5X",
"B.Z.W.W.%XW. XXXXX#XW. X%X5X5X:X4X$X0X4XrXP.} #.) Z T T ^ ^ ^ 4XuXh.% % q 2 @ & p.iXaXoXOXOX&X@X+X>XG.Y._ 2 k 9 s p p L.yX4X%X4X",
"B.R.XX:X%XXX#X%X#X XW.%X:X5X:X:X0XqX4XyX+X} { 1.3.D F E U m .X0X:XuXX.  u 4   X.eX8X3X:X0X0X%X%X>XF.l.H.F.V u V 9 2 l.pX;X0X3X:X",
"Z.W.W.%X%XXXW.#X%XXX#X:X5X5X:X5X$X0X0X4X3.#. .1.3. .T T n h.yX4XqXyXXXp   % z *XuX6X8X5X$XXX.X;XG.k.!.l.Q.l.2 d p o.tX,X:X@X8X;X",
"W.W.:X:X:X:X%X%X%X:X:X5X5X5X0X0XyXqXyXh.( -...1.:.4.} T #.yX;X0X9X5XuXR.v   U.tX9X5X0X:X;X:X*X'.x.b.x.b.H.c._ V P >X>X8XtX3X3X6X",
"0X5XqXqXqXqXqXsX5XqXuXuXuXuXuXuXyXuX;X+.t.-.6.6.4.i.4.#.$XyX0X0XuXuXsXpX$.$.pX:X5XqX;X5X0X$X}.D.l.l.b.l.c.F.F.Y G.aXeXwX8XtX8XaX",
"n n m m m m I b b b b b n n A n V b p u a p p l 0 n w ( E n n n U n T n -.-.s n l l l b p P XX6X=X=X=X=X*X$X@X{.R K l z z z b b ",
"n X X % . . $ + $ # . o @ X X @ . : 2 $ - O     % X 7 U n & 0 X   X & 6 F.E.&   #   - 9   w.pX8X,XsX,X,X6X6X<X3Xp.        #     ",
"E 6 @ 5 * % * * * $ $ 1 , # - , 2 u u 9 2 : - 2 @ 6 ( ( U 6 6 < < s @ B.7X<Xh.1 3 4 4   _ 8XtX6X,XsX9X,XtX4X$X&XtX+.# % . 1 . # ",
"O.! a o 4 4 % 2 1 : % 2 2 % : 3 9 9 9 9 3 - # , % L ( ^ ( E 7 < 6 X =.0X].&X;X( # k # p 9XpX,X6X3X3X>X,X7X;XOXOXOX*Xz   # . # + ",
"-.-.S % < , , < 2 , , 2 2 : : 3 9 9 9 9 a 3 # + n U ~ ^ L ( m % O k -X*X1X%X@X|.c * . L.tX*XyX3X,X@X*X3X*X=X$X&X.X1XE.1 # % . # ",
"( T R j @ X & X @ @ O O O . + + = > ; 8 8 , O - m L z K x U m c a  X9X*XyX@X%X<XZ.4 0.pX9X8X5X*X-X6XeX0X3X*X;X;X4X$XpXw.  @     ",
"q.3.i.3.F n C n C S S Z S Y Q T ) ) F T R R _ %.0.p.<.0.p.t.t.0.~ Y.d.g.w.s.e.f.r.X.5X-X9XuX#X:X,XtX@XC.V.G.N.c.c.h.v.A.R ^ / ^ ",
"rXiXiX+Xm.z.z.m.m.m.H.H.Q.oX=X+X`.+X`.oX).[.3XpXuXyXuXuXtX4XpXP.5           .   . @X8X%X%X%X#XXX@X*X=., g U n n g n p ( eXuXeXuX",
">X2X`.4.6.6.6.5.6.z.z.8._._./.H.Q.`.Q.F.F.+X<XsX9X9XaX9X8X8X*X9 : 4 4 + 6 . 4   s.5X].:XsX-X#XXX3XN.  X g R U U A n L %XwX&X4X3X",
">X1X>. .:.1.6.5.5.8.6.m._./.E.~.~.Q.Q.F.!.>X6XtXuX8X9X,XeXpXY , 1 2 2 # X u   $.aX*X9X3X*XyX9X%X].6     o n R A R n F.yX7X;X5X<X",
"1Xk.) [ -.5.1.9.9.9.8.~.m.m.m.E.Q.n.F.x.=XwX6X6X*X9XsXwXaX2.  < @ < @ , &   x ;X8X*X|.@X*X|.@XsXQ   % # @ 5 P U i -.0X$XqXaX@X8X",
"M.V _ ]  .7.7.6.;.7.n.`.~./.~.~.m.Q.Q.!.wX7X3X*X3XsX>X>X!.< > = O < O O > @ (.rXOX<X;X;X}.].5X&.  , # X X   4 L { ;XiX;X&X8X6X*X",
"R T ' ] [ -.6.5.M.8.~.~.m.~.Q.~.n.oX_.wXrX8XaXtXsXpXwX>XV ; > > > > < > > 3.rX;XwX+X&X$X&X*XV.X % + # # # # # g '.tX8X*X*X*X8X,X",
"D.{.[.oX+X1X1XrX,.) ;.;.;.;.:.:.3.#.j A g a c a c p g +.H ..` J ` ` [ ) n } [ [ E E L P P ~ G.@X}.].|.'.@X(.}.V.P u c u b k p p ",
"*X=X3X7X6XiX1X+XN 9 F ;.:.:...;.@.d       + $ . + O V >.u.] J ;...} 1. .G r t t i s 0 i l s.pXaX%XpX8X8XpX3X*XZ.$.  # .       . ",
"}.}.*X<X$XwXiXE d B _ ;.` :. .1.T   2 # # % + # - 8 <.i.k.;.;.;.;. . .D y t n t Z j Z i +.pX7X8XsX#X,XaX*X5XC.B.(.~     $ .   e.",
".X{.$X;X&XrXu.0 n C t ` -...1.[ X o o X o % , O = >.k.k.M.8.5.;.| @.` j t t w f n Z e L 3XtX5X5XaXsX,X6XsXS.g.Z.Y.Y.p .   $ / -X",
"W.E..X;X0XU.& n r n Z D ` 1.` y   * o o 5   - O ] k.k.4.8.8.5.;.>.[ C t t w e 0 f e s {.6X5X%X:X@X>X6XpX'.r.Z.a.j.Z.y.$   : #X@X",
"%X;X4XXX-Xk g V Z Z T S ' #.n & % X o % X ,   D x.x.k.k.8.8.8.8. .T n t j n f w w g v.pX0XtXpXuXtX3XaX@Xr.s.r.B.Z.B.j.$.- [.6X>X",
"W.W.W.4X~ 1 u u g 6 j j j j @ & 5   % ,   > 8 } :.;.;.;.;.;.:.:.C e y w e 8 0 9 < n P.d.a.v.v.N.s.p.s.U.B.j.j.B.R.Z.R.J.o.F.!.C.",
"S.B.^.|.Y.v . $   O - - X @ O @ # + # @ > O [ } M r M M r M M r w & X @ O         O i i w l 6 i 2 # $.].|.P.@X.X6X+X>X!.R W V N ",
"B.R.Y.,XaX<.+ $ O - + O + O 2 #   2 O @ O D 6.1.G B B B M M B f n y @ O   + @ O X #   V n j Z f u O.3X}.U.I.U.(.OXoXoX_ T ) N H ",
"B.R.R.,X#XsX/ $ : : O : : . # + = , @ = < 6.5.6.;.H M M B N B B M n < X O - $ +   + O q x w n w k |.;X]. XW.@XI.[.eX,.F W H G H ",
"B.].#X@X@X9X,X2 O # - + O - - O - @ @ > @.3.1.| 7.W B B N N t N w Z g & O + O O O O O   t D 0 f K.%X}..X|.'.K.E.+Xl.D G W ) ) F ",
"U.}.>X>X&XOXiXH.O = X O # O   = O = O W 4.:.@.|  . .) C f h l f w n n g #   + O O $ O O O w t 3.*X%X}.|.'.'.{..X(.T T W G ` H G ",
"oX{.=XOX+XrX1XrX>.O y 6 @ 8 3 = 3 3 d #.@.@.7... .@.[ F j p g s e y i s , + . + .   O O O < [ eX*X%X@XXX.X@X@X@X$.A E ' W ` G ) ",
"V V Z S [ W ` ` @.[  .6.k.x.x.F.).e.d , > < = 0 < < 8 > O O @ # & & ,   =.X.  2 2 + - O O   < w a u u u u u 7 u , @ < < > > > 8 ",
"=.9 h j S h F ) } 1.| n.m./.`.`.(.A O O O > O O @ X O @ @ O     X &   q =X}.p     - - @ 3 < #                   X # O O O O ; ; ",
"H._ t F D N H | ;...:.8.k.m.M.!.{ % O @   = + + = O   O +       O ; + Q.=X,XT.; X 2           # O X X X . . . X   o     = O O O ",
"D.G.F j F B | ..J ;.8.7.m.M.m.6.    %   - +   $   + O + .   X % ; O ,.6X[.[.>X,.O # + # # #   # .   O       . .   .   + - O O O ",
"D.!.F.8 M G ..;.;.;.;.7.8.8.M.8 %   * .     5 . + $ $ +       O + K oX[.oX!.=X>XZ @ # .     .   X O X .   . . . . . . .     O + ",
"l.!.!.@.B H J ;.J 7.;.7.8.M.H ; @ . .   1 . . + + +     . $ + O ; [.oX[.!.).!.>XP.#   X o   o   . X O X . . . . . . + . . $ +   "
};
