/* XPM */
static char *W1683235620[] = {
/* columns rows colors chars-per-pixel */
"64 64 201 2 ",
"   c #A4A3A1",
".  c #A5A4A2",
"X  c #A6A5A3",
"o  c #A8A7A5",
"O  c #ABAAA8",
"+  c #ACABA9",
"@  c #ADACAA",
"#  c #AEADAB",
"$  c #AFAEAC",
"%  c #B0AFAD",
"&  c #B1B0AE",
"*  c #B2B1AF",
"=  c #B2B2B0",
"-  c #B3B2B0",
";  c #B3B3B1",
":  c #B4B3B1",
">  c #B5B4B2",
",  c #B6B5B3",
"<  c #B7B6B4",
"1  c #B8B7B5",
"2  c #B8B8B6",
"3  c #B9B8B6",
"4  c #BAB9B7",
"5  c #BCB8B7",
"6  c #BBBAB8",
"7  c #BCBBB9",
"8  c #BCBCBA",
"9  c #BDBCBA",
"0  c #BEBDBB",
"q  c #BEBEBC",
"w  c #BFBEBC",
"e  c #C0BFBD",
"r  c #C3BFBE",
"t  c #C0C0BE",
"y  c #C1C0BE",
"u  c #C2C1BF",
"i  c #C2C2C0",
"p  c #C3C2C0",
"a  c #C5C1C0",
"s  c #C4C3C1",
"d  c #C6C2C1",
"f  c #C4C4C2",
"g  c #C5C4C2",
"h  c #C6C5C3",
"j  c #C6C6C4",
"k  c #C7C6C4",
"l  c #C7C7C5",
"z  c #C9C5C4",
"x  c #C8C7C5",
"c  c #CAC6C5",
"v  c #CBC7C6",
"b  c #C8C8C6",
"n  c #C9C8C6",
"m  c #C9C9C7",
"M  c #CAC9C7",
"N  c #CACAC8",
"B  c #CBCAC8",
"V  c #CBCBC9",
"C  c #CCCBC9",
"Z  c #CECAC9",
"A  c #CFCBCA",
"S  c #CCCCCA",
"D  c #CDCCCA",
"F  c #CDCDCB",
"G  c #CECDCB",
"H  c #CECECC",
"J  c #CFCECC",
"K  c #CFCFCD",
"L  c #D1CDCC",
"P  c #D0CFCD",
"I  c #D2CECD",
"U  c #D3CFCE",
"Y  c #D0D0CE",
"T  c #D1D0CE",
"R  c #D1D1CF",
"E  c #D2D1CF",
"W  c #D4D0CF",
"Q  c #D2D2D0",
"!  c #D3D2D0",
"~  c #D3D3D1",
"^  c #D5D1D0",
"/  c #D4D3D1",
"(  c #D6D2D1",
")  c #D7D3D2",
"_  c #D4D4D2",
"`  c #D5D4D2",
"'  c #D5D5D3",
"]  c #D6D5D3",
"[  c #D6D6D4",
"{  c #D7D6D4",
"}  c #D7D7D5",
"|  c #D8D7D5",
" . c #DAD6D5",
".. c #DBD7D6",
"X. c #D8D8D6",
"o. c #D9D8D6",
"O. c #D9D9D7",
"+. c #DAD9D7",
"@. c #DADAD8",
"#. c #DBDAD8",
"$. c #DBDBD9",
"%. c #DDD9D8",
"&. c #DCDBD9",
"*. c #DEDAD9",
"=. c #DFDBDA",
"-. c #DCDCDA",
";. c #DDDCDA",
":. c #DDDDDB",
">. c #DEDDDB",
",. c #DEDEDC",
"<. c #DFDEDC",
"1. c #DFDFDD",
"2. c #E0DCDB",
"3. c #E1DDDC",
"4. c #E0DFDD",
"5. c #E2DEDD",
"6. c #E3DFDE",
"7. c #E0E0DE",
"8. c #E1E0DE",
"9. c #E1E1DF",
"0. c #E2E1DF",
"q. c #E4E0DF",
"w. c #E2E2E0",
"e. c #E3E2E0",
"r. c #E3E3E1",
"t. c #E5E1E0",
"y. c #E4E3E1",
"u. c #E6E2E1",
"i. c #E7E3E2",
"p. c #E4E4E2",
"a. c #E5E4E2",
"s. c #E5E5E3",
"d. c #E6E5E3",
"f. c #E6E6E4",
"g. c #E7E6E4",
"h. c #E7E7E5",
"j. c #E8E4E3",
"k. c #E9E5E4",
"l. c #E8E7E5",
"z. c #EAE6E5",
"x. c #EBE7E6",
"c. c #E8E8E6",
"v. c #E9E8E6",
"b. c #E9E9E7",
"n. c #EAE9E7",
"m. c #ECE8E7",
"M. c #EAEAE8",
"N. c #EBEAE8",
"B. c #EBEBE9",
"V. c #EDE9E8",
"C. c #ECEBE9",
"Z. c #EEEAE9",
"A. c #EFEBEA",
"S. c #ECECEA",
"D. c #EDECEA",
"F. c #EDEDEB",
"G. c #EEEDEB",
"H. c #EEEEEC",
"J. c #EFEEEC",
"K. c #EFEFED",
"L. c #F0ECEB",
"P. c #F1EDEC",
"I. c #F0EFED",
"U. c #F2EEED",
"Y. c #F3EFEE",
"T. c #F0F0EE",
"R. c #F1F0EE",
"E. c #F1F1EF",
"W. c #F2F1EF",
"Q. c #F4F0EF",
"!. c #F2F2F0",
"~. c #F3F2F0",
"^. c #F3F3F1",
"/. c #F5F1F0",
"(. c #F4F3F1",
"). c #F6F2F1",
"_. c #F4F4F2",
"`. c #F5F4F2",
"'. c #F5F5F3",
"]. c #F6F5F3",
"[. c #F6F6F4",
"{. c #F7F6F4",
"}. c #F7F7F5",
"|. c #F9F5F4",
" X c #F8F7F5",
".X c #FAF6F5",
"XX c #F8F8F6",
"oX c #F9F8F6",
"OX c #F9F9F7",
"+X c #FAF9F7",
"@X c #FAFAF8",
"#X c #FBFAF8",
"$X c #FBFBF9",
"%X c #FCFBF9",
"&X c #FCFCFA",
"*X c #FDFCFA",
"=X c #FDFDFB",
"-X c #FEFDFB",
";X c #FEFEFC",
":X c #FFFEFC",
">X c #FFFFFD",
/* pixels */
"C.J.N.]. XW.oX{.].C.D.*X XW.@ 4.0.C 4.o.G ;.;.| n T / n h o n.oX].W.].]./.].].K.].W.*XW.W.  ` d.o.` 0.h d.h o.G n G u T @ T 0.h ",
"W.].W.oXoX~.oX{.*X].].oXD.d.+ ;.0.n ` | G ` ` G h C P n n & n.].].W.oXoX].{.oX].].K.].D.D.@ o.d.` P o.h 0.h ` n n T G o., G G & ",
"C.W.J. X XJ.].].%X~.W.W.4.| + ;.l.n G o.T / G G C G ` T T 9 C.D.C.D. XoXW.].oX].W.n.n.0.d.& o.0.T h ` x 0.h T n n ` ` ;.3 x u   ",
";.y.e.D.D.l.I.W.D.n.g.d.o.{ 3 0.n.n h o.` ` G T ` | ;.| ` h 0.;.` o.l.D.d.n.D.W.D.d.;.;.0.u ;.0.` u T n ;.G ` T ` 0.;.d.h T | 9 ",
"<.e.4.l.l.0.C.D.n.0.e.d.d.d.P N.n.G 3 o.| | P | o.o.4.o.o.T ;.` s G o.d.;.0.n.N.C.n.d.h.n.;.n.n.o.9 T T ;.T ` o.` 0.o.;.G o.0.G ",
"W.I.y.n.l.0.N.C.D.n.N.D.I.~.d.J.D.o.7 ;.&.;.` 0.` o.4.;.&.;.d.&.k G 0.n.g.n.W.W.W.W.D./.D.W.W.].d.u o.o.;.;.;.;.T ;.o.o./ o.0.T ",
"{.~.e.g.g.d.D.D.I.N.D.C.I.J.d.l.W.0.9 ;.| o.` ;.| o.4.o.| y.0.;.G ` d.D.n.D.W.W.n.I.I.D.0.W.n.D.D.u ` o.o.o.` o.o.0.;.0.4.0.0.T ",
"W.n.o.;.y.d.W.W.n.g.n.d.d.e.0.;.C.d., ` G T n ` ` ` o./ n o.` P n G ;.d.d.d.n.d.;.n.d.0.P y.;.0.n., G G n C h G G ` G G T T T 9 ",
"g.0.P ` ;.;.d.0.T o.4.C ;.9 ` e.` 4., 7 G 3 9 7 k u n 9 h $ G k u u n T G T T n P ` T P n s ` o.` , 1 u 9 9 3 3 3 3 & & 3 & u , ",
"o.T u s h e u 3 , 9 p & k % w k x ` & & u , , @ & $ 3 @ ,   u 9 w 9 p n s h u 3 , , & , & + 7 u T , , 9 3 , @ & u 3 3 @ % @ T T ",
"| / x G G p u 3 u s h - k - : 1 e T 3 9 n h h 9 9 3 h 6 u $ T P J n T ` T G G h G n 9 h u , 9 u o.n h n ` T h T G h G u & @ ` o.",
"4.4.#.n.D.0.0.&.l.<.<.T 4.x e G T 0.` T 4.;.0.| #.o.<.` T h 0.d.d.d.N.W.d.d.d.0.n.d.o.0.o.h G ` 0.` ` o.d.0.T d.;.` ;.` 9 3 ;.o.",
";.<.<.J.~.g.n.d.I.;.e.0.N./ n n.4.n.4.o.;.0.d.o.0.;.4.o.G h ;.y.0.d.D.W.d.0.n.n.0.0.;.n.0.G o.d.d.;.;.o.n.d.T 0.d.` o.` e 3 0.o.",
"#.#.` d.y.` ` | 4.P #.&.0.P e d.T ` P C P ` | Q { | | ` V p o.&.` { 0.;.T G ` o.T ` ` 0.o.n ` ;.T n G / o.&.G o.o.T o.` h 3 T 9 ",
"o.{ T #.o.x J T ` P ;.o.;.` 9 #.C u h n G o.o.` #.;.;.d.o.T <.0.` T { ` n V T T P ` ` o.T h G G h 3 h G T ` T ` o.o.d.0.;.h n , ",
"T J n / T h J ` T / y.#.0.g.n o.o.n T | &.d.0.0.0.l.n.].n.0.n.d.;.` ` ` T T o.` 0.l.d.d.d.;.0.o.;.T ;.n.d.D.n.n.n.W.].D.W.o.;./ ",
"2.y.r 6.2.U k.6.t.k.z.k.z.z.k.Z.k.&.4.I./.~.I.{.~.W.I.@X{.J.oXJ.].d.;.;.0.d.D.d.d.].n.D.oXn.d.W.W.;.W.>XW.oX>X].].oX%XJ.>X/.W.].",
"L./.U Y.L.6..X).Z.P.Y.L.L.Y.L.Y.I.l.C. X>X@X X%XoX X/.*XoX].*X].oXD.n.n.n.W.].W.l.].d.n.].d.y.D.W.;.].>X~.oX>X].oXoXoXD.>X].oX>X",
"Y.Y.U P.Y.z..XY.V.Y.).P.L.L.L.L.I.l.I.%X>X@X X*X*X*X/.oX$X].*XoX*XW.D.D.D.W.W.D.D.].l.n.I.d.n.n.W.0.oX>X~.@X*XoX*X*X%X~.>XoX*X>X",
"C.z.P 6.z.6.L.k.t.z.L.L.6.2.t.2.l.y.l.I.{.~.~./.{. XC.W.oXW.].].].n.d.n.d.p.d.<.n.C.0.d.0.;.l.d.d.<./.{.n.W.].W.W.W.W.I./.I.W.~.",
"6.2.L | k.2.k.2.%.2.%.6.^ C 6.&.0.4.0.n.C.g.y.g.y.C.;.y.C.0.y.y.0.o.o.;.` o.o.` o.{ ~ ` n P d.;.;.{ g.d.o.;.;.#.o.| o.;.#.0.d.d.",
"L c r x U c  .^ ..U x ) a 5 2.y.0.<.<.0.<.#.{ | G &.G P | G C T ` G G T G T ` o.L n T ` u k d.;.;.X.0.o.T ` T G ` J G ` T d.W.}.",
"x x G k L s / / 4.Q x 4.c : #.e.4.;.&.&.| / Q Q C &.G C ` n n | o.T T T n T ;.0.o.` ;.0.9 k n.0.0.;.e.o.` #.` ` 0.o./ ;.~ B.$X>X",
"q.y.C.;.0./ q.k.C.4.&.%X4.w <.e.4.<.;.&.#.| | o.o.C.&.| 0./ ` l.n.;.o.o.T o.n.D.n.0.D.n.u h n.;.;.o.;.{ ` 0.#.;.d.;.` y.Q n.~./.",
"D.;./ G X.#.X.g.e.#.y.y.V V <.#.{ &.&.Q | ;.&.n &.o.| | ` C P y.0.T T ;.;.o.0.0.{ T o.T h T T V o.` h T T T n ` 0.G ` o.T 0.#X X",
"&.C s x X.-.Q X.Q n T Q w t Y V G J C x C P C s P G x x x e s ` ` h G ` ` ` o.o.G h T h e n n u G h 3 h u h 6 n C 9 s V h { I.D.",
"k k s T 1.1.X.X.Y k G V t f V j e 7 , 1 1 7 3 3 C x u s h e 9 P T h G o.;.o.;.;.` G ` G G ` T h h 9 , u e u 9 h n u h n s P 0.4.",
"V Q V <.w.w.1.b.p.-.<.<.X.-.1.[ T x e n h C x T / T G T | T P | o.T o.n.D.n.n.C.l.;.d.0.0.D.0.o.T p u G G G J ` <.o.#.;.` &.y.0.",
"#.<.j :.p.b.b.F.~.F.F.B.F.!.K.f.4./ C &.` &.| l.4.0.4.y.D.l.4.y.0.` ;.W.W.D.D.D.D.n.D.n.W.].e.0.;.G ` ;.;.;.d.n.0.d.n.C.l.d.k.p.",
"J.g.2 X.f.^.F.g.b.N.h.h.F.^.F.w.&.| n 0.| 0.&.C.y.d.d.l.D.d.4.d.;.` &.n.n.d.d.d.n.n.n.d.D.D.;.;.0.J ;.d.d.;.D.C.0.0.d.0.4.&.o.` ",
"b.p.= X.f.!.b.1.w.f.w.1.h.b.w.[ 4.4./ n.&.n.4.D.4.4.&.o.;.` / | 0.` } 0.q.;.;.0.g.n.d.0.n.d.T ` 0.G ;.y.0.o.n.e.#.;.o.` ` T G G ",
"~ -.; -.:.p.1.X.e.b.p.:.p.p.{ S o.&.P l.` y.o.l.o.&./ P P x s C d.o.-.d.p.;.0.;.d.d.0.o.d.0.G T d.G ;.0.;./ d.0.T | T G T T T o.",
"R X.f X.1.1.-.X.-.h.-.~ -.~ m t G ` T o.G ` G T T T G G V h G ;.0.{ o.;.T E &.` &.0.` &.o.B L 9 E u { E Y u &.Y M ) B Y u Y Y 0.",
":.f.~ w.w.f.1.f.w.B.p.1.p.X.V V ` o.T o.G / G G T T P T T n T n.D.q.n.n.0.0.l.d.0.0.{ d.7.B ` T 7.Y &.&.{ E &.E E { E E u E %.C.",
"!.!.F.F.B.!.h.'.B.^.B.K.K.p.~ 1.0.0.;.4.o.;.o.o.` | ` &./ x ` ].[.K.W.oXW.W.].W.].].C.%XW.{ d.C.C.l.d.C.l.l.0.l.0.0.0.0.M { l.W.",
"&X'.OX^.'.&XJ.&X}.$X}.$X}.K.:.'.n.C.n.C.d.n.d.n.d.d.d.n.;.n o.*X#XoX%X*XoX].oXoX{.%XR.*XW.;.C.R.l.R.0.D.l.R.0.G.R.l.G.l.M Y l.C.",
">X'.@X~.&X>X!.&X>X>XOX>X}.^.-.$Xd.n.W.D.n.y.l.D.W.D.W.W.l.E 7.>X%XoXoX#X#XoX{.%XW.*XW.%XW.l.W.R.d.D.q.R.0.g.7.R.W.N.{.R.E E C.C.",
"OX!.^.F.&X}.~.'.@XOX{.@XK.K.Y B.4.0.n.0.0.` ;.;.y.d.d.n.0.T 2.*X].oX].].oXW.W.oXW.*X].{.R.7.l.2.l.0.7.0.#.{ &.0.0.0.R.q.{ E l.q.",
"F.N.h.p.^.f.F.J.B.F.F.~.p.B.t -.4.o.;.T o.G o.` ` | | o.` G T n.d.n.d.d.D.n.d.W.0.W.l.C.&.u Y B 7.G Y L B B { Y Y J { M x y Y E ",
"w.b.1.:.b.[ B.b.-.w.f.F.1.B.t X.0.| ` n o.T ;.o.` | ` T H h n ` ` &.{ ` 0.;.#.n.0.C.0.W.0.u { 7.0.B Y Y E { l.{ { { &.x Y u Y { ",
"h.F.X.:.:.R w.f.p.~ 1.B.X.B.-.-.0.&.G ` ;.0.n.0.0.7.;.1.;.` o.0.;.` o.7.{ ` 7.k.d.0.k.K.R.k.l.C.D.Q / q.J.G.D.N.0.q.v.0.0.} S.q.",
"F.'.[ :.1.R f.f.F.p.B.K.w.'.h.p.0.;./ ;.D.W.W.d.n.d.k.g.d.0.d.N.n.o.;.n.7.7.n.C.d.7.d.g.C.R.0.&.0.P Q q.W.G.0.7.v.q.q.0.q.;.K.h.",
"!.OXS X.f.X.!.f.^.B.K.K.f.^.h.w.o.| G o.D.D.D.;.0.0.0.0.0.d.g.l.n.{ ;.n.0.l.W.D.R.R.{.n.l.R.&.E &.C E v.G.0.&.P 0.;.;.;.q.1.K.0.",
"F.!.j [ f.X.'.b.B.K.K.h.p.h.:.R o.T s T 0.0.o.x T o.o.` ` ;.0.;.;.x G o.` d.W.0.R.D.oX0.&.0.E { #.u C 7.7.] u 7 ] G G Y ;.] 0.Y ",
":.p.8 S X.R F.w.p.h.p.X.X.{ ~ V ;.` h G ` | T u 9 u h u u h G G G y h L H ;.d.{ <.T { Y B Y B 7.| u C ] ] C u t G u u u G u | N ",
"[ [ t N [ Y X.[ X.-.~ N J f ~ { 0.;.G T o.o.o.G u n B h u u n H G G T T E ;.;.} 0.T u n B Y { 7.0./ Q &.&.| #.{ ] Q ] G N u &.] ",
"[ [ R [ :.-.[ :.X.1.[ Y X.p X.d.d.d.;.0.0.0.n.0.d.d.n.0.` T o.h.` 0.0.o.0.d.0.0.d.n.` &.#.E l.0.J.0.0.D.v.v.M.v.0.q.q.| G u 0.v.",
"X.X.f.f.b.B.:.B.:.b.f.f.K.V 0.W.D.W.D.I.D.n.W.I.n.C.n.d.T n T q.{ R.D.0.D.D.d.D.E [.l.C.&.Y |.R.{.D.D.~.W.F.F.M.v.F.G.&.u 7 0.G.",
"[ N.N.N.n.d.C.C.| W.].J.I.y.;.{.C.n.0.D.R.0.0.o.0.;.&.T n n G ` q.0.S.q.0.S.v.0.Y {.G.R.E &.{.l.;.v.D.7.;.&.` ` { 0.Y L 9 , <.0.",
"V 1.-.:.4.&.e.e.J d.n.g.g.| | ~.7.;.T ;.;.T G h G T G x 9 u x P q.<.1.#.| 1.;.] ) W.0.n.E { R.7.P ] | / G x h B x G y u 6 3 0.0.",
"n { Y ` #.` &.;.G &.;.&.&.P P C.G G n ` ` u h u h x x u 9 9 h n } Q G G ] | | E { 0.E &.B Y 7.{ C C J P G h h T B G 9 h u u ;.o.",
"C Q V T o.{ 4.4.{ | / | ` x n <.B T T 2.;.G T o.o.&.o.` T G ` o.} Q u B | ;.0.<.{ &.x { x B { E &.G / 0.0.#.;.l.l.d.o.7.o.{ n.0.",
"Q / x Q 4.#.4.e.g.;.` | &./ Q &.d.o.T d.R.l.R.W.].{.].W.D.D.W.W.W.G.Y { q.0.g.q.7.&.E 0.E &.0.q.0.P { R.W.R.W.oXoXoX{.oXW.W.*XoX",
"4.&.C | l.0.y.d.W.l.e.g.n.N.C.C.*X;.h 7.oX*X*X*X*X*X>X*X%X*X*X*X#X@X} ;.C.<.0.g.N.l.l.W.l.R.R.].0.C &.%X*X%X*X*X*X*X*X*X[.[.%XoX",
"J.y.Q <.D.y.e.y.D.N.C.C.D./. XI.W.` u d.*X*X%X%X].{.%X%XoXoX*X*X{.%XY ;.C.{ 0.v.l.0.l.W.l.W.D.C.%.N 7.*X*X%X*XoX*XoX*X*XW.].W.W.",
"I.d.P &.C.<.#.o.<.e.l.y.0.C.I.C.` B G ].>X{.@X%X].].oXoXoXoX XoX%X*X] ;.G.E &.q.;...7.C.7.C.7.&.G u 0.%X%X].%XW.*X].*X*XoX*X%X#X",
"y.0.h C &.C C n k Q &.&.Q &.4.| G / &.@X%XG.'.%X].@X@X@X].].].].R.W.A x Y 9 9 y Y B 7.Y Y Y { L G ;.D.].].W.].{.W.W.W.W.n.D.].].",
"T / 9 h / s e 9 p C / P C C G P / | &.J.~.v.W.'.G.J.G.F.M.v.q.q.&.7.x u u 1 1 4 x n E G B k { E ` ;.n.K.D.n.D.W.d.d.d.l.;.7.n.d.",
"x G s V P s w w h T P P P x s P &.7.1.M.N.q.F.M.q.q.0.;.| | E E G E B Y Y u M x G E ` E A 9 7.7.0.0.d.g.0.0.0.d.0.0.o.o.` ` n.l.",
"/ ` ` #.&.P P P Q &.| o.4.C x 4.0.0.7.M.q.0.q.0.0.1.| ] ] ] Y Y { &.7.7.&.{ 7.&.o.q.;.0.` 9 0.0.n.l.d.q.7.0.7.;.0.;.` ` } T ].|.",
"&.&.0.0.&.o.&.<.#.e.;.0.l.T C C.q.F.0.0.q.7.0.] 7.1.;.&.&.%.| { 0.7.q.7.{ ..&.&.&.0.0.0.o.9 d.d.n.l.d.0.0.;.;.;.;.;.` ` ;.H oX{.",
"| P ;.| J / { &.o.;.&.4.4.G P C.0.0.0.0.0.&.;.] ;.;.&.;.7.;.| | E E %.Y J E E &.{ 7.7.;.{ h d.d.d.d.0.0.0.;.;.;.o.;.;.0.d.B W.l.",
"G s / G u V G T | ` o.2.{ n P y.;.0.0.q.0.| ;.&.;.&.| ;.;.%.] Y u G B y x E G 7.` ` ;.T T Y 0.0.q.0.0.;.&.&.;.0.o.;.;.0.n.u D.&.",
"C e T n 9 n n G | / &.4.P x / 4.;.1.1.q.0.| 7.0.0.0.;.0.7.&.E J u G B 1 u B y E E B { h x Y ;.&.0.7.;.o.` { ;.0.o.;.` o.;.1 d.` "
};
